{"glyphs":{"0":{"ha":660,"x_min":28,"x_max":633,"o":"m 28 339 q 155 638 64 531 q 337 744 246 744 q 511 647 428 744 q 633 382 594 549 q 506 85 597 190 q 324 -21 415 -21 q 150 76 233 -21 q 28 339 67 172 m 206 569 q 184 521 206 569 q 161 361 161 472 q 206 153 161 250 q 331 26 251 56 q 455 153 410 56 q 500 361 500 250 q 455 569 500 472 q 331 696 410 667 q 206 569 251 667 z "},"1":{"ha":660,"x_min":183,"x_max":490,"o":"m 296 306 l 296 382 q 292 608 296 525 l 186 608 l 183 611 q 188 638 183 629 q 374 740 296 663 q 413 744 390 744 l 418 742 q 399 382 399 628 l 399 306 q 408 46 399 119 q 490 18 449 36 l 486 -8 q 346 0 415 0 q 199 -11 276 0 l 196 15 q 283 42 244 33 q 296 306 296 144 z "},"2":{"ha":660,"x_min":50,"x_max":576,"o":"m 222 121 q 310 121 243 121 q 515 103 376 121 q 547 183 529 133 l 576 174 q 561 75 561 119 q 571 -10 561 31 l 554 -21 q 125 25 315 25 q 114 25 119 25 q 78 -22 92 -1 l 50 -10 q 140 134 76 56 q 260 271 203 213 q 364 403 318 329 q 410 542 410 478 q 279 658 410 658 q 188 639 231 658 q 178 594 178 622 q 192 554 178 567 l 190 544 q 124 489 154 522 q 97 502 107 490 q 88 529 88 514 q 165 658 88 593 q 319 744 242 722 q 496 686 444 744 q 547 496 547 628 q 183 115 435 321 l 186 106 q 222 121 207 117 z "},"3":{"ha":660,"x_min":54,"x_max":593,"o":"m 144 207 q 147 122 144 153 q 235 82 181 99 q 340 65 290 65 q 418 99 390 65 q 436 203 436 140 q 384 344 436 294 q 239 393 332 393 l 233 401 l 421 622 l 418 628 q 381 614 397 618 q 176 624 300 614 q 149 539 164 593 l 119 549 q 129 645 129 604 q 115 732 129 686 l 131 744 q 519 707 297 707 q 569 744 554 729 l 593 724 q 347 475 539 674 q 558 217 558 440 q 455 75 529 144 q 306 -21 381 6 q 176 -6 249 -21 q 54 33 104 10 l 54 51 q 114 207 107 111 l 144 207 z "},"4":{"ha":660,"x_min":18,"x_max":594,"o":"m 476 739 q 458 472 458 632 q 460 263 458 311 q 534 273 513 263 q 572 324 556 283 l 594 319 q 582 192 582 257 l 576 189 q 461 193 528 193 q 472 46 461 128 q 543 21 501 31 l 538 -7 q 394 0 458 0 q 243 -17 329 0 l 239 11 q 349 47 286 32 q 358 193 358 126 l 24 193 l 18 213 q 215 458 138 349 q 364 710 293 568 q 465 744 422 724 l 476 739 m 353 597 q 164 278 282 442 q 358 267 253 268 l 363 597 l 353 597 z "},"5":{"ha":660,"x_min":69,"x_max":574,"o":"m 160 207 q 163 122 160 153 q 251 82 196 99 q 356 65 306 65 q 433 99 406 65 q 451 203 451 142 q 399 344 451 294 q 256 393 347 393 q 158 369 201 393 l 142 382 l 156 592 q 158 668 158 629 q 153 740 158 707 l 182 746 q 194 708 189 721 q 513 744 372 714 l 528 732 q 511 636 511 683 q 518 547 511 589 l 488 540 q 463 624 475 592 q 250 614 365 614 l 218 628 l 213 621 l 197 439 q 299 481 251 469 q 502 411 431 478 q 574 217 574 344 q 470 75 544 144 q 321 -21 396 6 q 192 -6 264 -21 q 69 33 119 10 l 69 51 q 129 207 122 111 l 160 207 z "},"6":{"ha":660,"x_min":106,"x_max":615,"o":"m 229 272 q 265 123 229 181 q 372 65 300 65 q 472 99 444 65 q 493 203 493 151 q 445 331 493 288 q 311 374 397 374 q 269 369 290 374 l 269 379 q 349 450 314 411 q 544 392 474 450 q 615 217 615 333 q 503 73 585 146 q 347 -21 421 0 q 168 44 231 -21 q 106 226 106 110 q 216 531 106 389 q 485 744 326 672 l 503 719 q 305 517 381 632 q 229 272 229 401 z "},"7":{"ha":660,"x_min":131,"x_max":599,"o":"m 436 -8 q 285 0 356 0 q 142 -15 215 0 l 135 13 q 204 42 179 26 q 258 242 214 144 q 394 488 301 340 l 483 626 l 479 632 q 442 618 460 624 q 196 625 268 618 q 171 542 183 593 l 140 549 q 147 637 147 590 q 131 732 147 683 l 146 744 q 547 707 288 715 q 572 739 560 722 l 599 724 q 443 456 504 583 q 328 50 329 218 q 439 19 394 38 l 436 -8 z "},"8":{"ha":660,"x_min":86,"x_max":586,"o":"m 557 606 q 406 414 557 521 q 572 279 543 343 q 586 211 586 249 q 482 71 557 135 q 324 -21 407 7 q 157 28 228 -21 q 86 166 86 78 q 249 365 86 254 q 117 563 117 447 q 227 672 149 614 q 364 744 306 729 q 501 709 444 744 q 557 606 557 674 m 447 99 q 464 163 464 132 q 455 215 464 194 q 423 253 446 235 q 383 283 400 272 q 328 315 365 294 q 275 346 290 336 q 209 278 229 311 q 189 191 189 246 q 238 101 189 136 q 351 65 286 65 q 447 99 417 65 m 238 586 q 376 432 238 501 q 435 498 417 468 q 454 569 454 528 q 335 658 454 658 q 244 626 274 658 q 238 586 238 606 z "},"9":{"ha":660,"x_min":44,"x_max":554,"o":"m 431 451 q 395 601 431 543 q 288 658 360 658 q 188 625 215 658 q 167 521 167 572 q 214 393 167 436 q 349 350 261 350 q 390 354 369 350 l 390 344 q 311 274 346 313 q 115 332 186 274 q 44 507 44 390 q 157 651 75 578 q 313 744 239 724 q 492 679 429 744 q 554 497 554 614 q 444 193 554 335 q 175 -21 333 51 l 157 4 q 355 207 279 92 q 431 451 431 322 z "}," ":{"ha":250,"x_min":0,"x_max":0,"o":""},"!":{"ha":314,"x_min":72,"x_max":251,"o":"m 222 64 q 188 18 213 46 q 147 -21 164 -10 q 106 18 131 -10 q 72 64 82 46 q 104 102 81 81 q 147 133 128 124 q 189 101 165 122 q 222 64 213 79 m 100 943 q 150 959 117 951 q 194 967 183 967 q 207 967 204 967 q 251 911 222 953 q 165 253 186 679 l 129 250 l 100 943 z "},"\"":{"ha":438,"x_min":88,"x_max":399,"o":"m 88 901 q 138 917 104 910 q 181 925 171 925 q 194 925 192 925 l 211 907 q 147 603 168 796 l 106 600 l 88 901 m 275 901 q 325 917 292 910 q 369 925 358 925 q 382 925 379 925 l 399 907 q 335 603 356 796 l 293 600 l 275 901 z "},"#":{"ha":764,"x_min":56,"x_max":708,"o":"m 528 515 q 654 514 621 514 q 699 514 688 514 l 708 506 l 694 439 l 518 443 l 497 261 q 619 260 586 260 q 661 260 651 260 l 671 253 l 657 185 l 489 189 l 451 -128 l 444 -128 q 388 -99 411 -121 q 431 190 413 39 l 281 194 l 243 -128 l 236 -128 q 179 -99 203 -121 q 222 190 204 39 l 222 196 l 67 200 l 56 210 l 69 282 l 133 276 q 232 271 158 274 l 254 450 l 104 454 l 93 463 l 107 536 l 169 531 q 263 525 192 528 l 299 815 q 360 822 325 815 l 365 818 q 319 522 336 663 q 471 517 365 519 l 507 815 q 568 822 533 815 l 574 818 q 528 517 544 661 l 528 515 m 289 268 q 439 263 333 265 l 461 444 l 311 449 l 289 268 z "},"$":{"ha":625,"x_min":76,"x_max":558,"o":"m 129 475 q 187 601 129 535 q 328 710 244 668 l 332 817 q 369 825 354 819 l 375 821 q 365 726 367 772 q 558 704 471 726 l 558 685 q 499 528 507 621 l 468 528 q 464 615 468 583 q 361 636 411 635 l 353 432 q 525 306 494 350 q 539 263 539 285 q 478 117 539 190 q 325 -3 418 43 l 324 -128 l 317 -128 q 279 -107 293 -121 l 286 -21 q 76 15 176 -21 l 76 33 q 136 189 128 97 l 167 189 q 169 104 167 135 q 290 69 226 74 l 303 311 q 217 364 249 343 q 158 416 186 385 q 129 475 129 447 m 456 183 q 338 290 456 221 l 328 69 q 419 102 382 75 q 456 183 456 129 m 213 554 q 318 453 213 518 l 325 635 q 213 554 213 622 z "},"%":{"ha":1033,"x_min":47,"x_max":986,"o":"m 247 792 q 406 771 278 792 q 625 750 533 750 q 749 803 717 750 l 757 817 q 847 831 810 819 l 851 826 q 650 525 757 692 l 226 -139 l 219 -139 q 165 -94 183 -122 q 335 142 306 96 l 578 522 q 708 732 644 622 l 703 733 q 597 699 669 699 q 361 749 525 699 l 357 744 q 443 567 422 683 q 364 380 424 444 q 242 315 304 315 q 124 374 181 315 q 47 540 67 433 q 128 727 67 663 q 247 792 189 792 m 590 204 q 671 391 610 326 q 794 456 732 456 q 911 397 856 456 q 986 231 967 338 q 907 44 967 108 q 785 -21 847 -21 q 667 38 724 -21 q 590 204 610 97 m 319 433 q 333 461 319 433 q 346 554 346 490 q 319 676 346 618 q 247 750 293 733 q 175 675 203 733 q 147 554 147 617 q 175 433 147 492 q 247 358 203 375 q 319 433 293 375 m 863 97 q 876 125 863 97 q 889 218 889 154 q 863 340 889 282 q 790 414 836 397 q 718 339 746 397 q 690 218 690 281 q 718 97 690 156 q 790 22 746 39 q 863 97 836 39 z "},"&":{"ha":836,"x_min":69,"x_max":835,"o":"m 547 786 q 389 825 481 825 q 240 778 297 825 q 239 742 239 758 q 292 581 239 639 q 476 522 346 522 q 828 567 671 522 l 835 560 q 817 457 821 515 l 813 451 q 669 463 749 460 l 669 254 q 590 90 669 169 q 415 -21 510 10 q 168 51 267 -21 q 69 257 69 124 q 150 417 69 353 q 333 481 231 481 l 333 486 q 176 539 239 492 q 113 669 113 586 q 245 829 163 758 q 422 925 328 900 q 617 899 521 925 q 674 942 639 910 l 703 922 q 590 657 611 811 l 554 657 q 547 786 554 733 m 575 175 q 556 463 575 324 l 453 463 q 272 420 343 463 q 200 281 200 378 q 267 131 200 185 q 424 78 333 78 q 565 111 514 78 q 575 175 575 131 z "},"'":{"ha":250,"x_min":88,"x_max":211,"o":"m 88 901 q 138 917 104 910 q 181 925 171 925 q 194 925 192 925 l 211 907 q 147 603 168 796 l 106 600 l 88 901 z "},"(":{"ha":413,"x_min":67,"x_max":361,"o":"m 347 -299 q 142 -9 217 -187 q 67 360 67 169 q 140 713 67 551 q 347 988 214 875 l 361 974 q 167 364 167 708 q 217 16 167 188 q 361 -285 267 -156 l 347 -299 z "},")":{"ha":413,"x_min":51,"x_max":346,"o":"m 65 988 q 272 713 199 875 q 346 360 346 551 q 271 -9 346 169 q 65 -299 196 -187 l 51 -285 q 196 16 146 -156 q 246 364 246 188 q 51 974 246 708 l 65 988 z "},"*":{"ha":515,"x_min":60,"x_max":454,"o":"m 282 933 l 318 942 l 321 939 q 271 783 281 874 q 379 904 343 838 l 383 904 q 390 884 386 899 q 394 868 394 869 q 442 875 432 875 q 454 874 453 875 q 419 825 454 869 l 431 814 q 444 797 442 803 l 443 794 q 433 794 438 794 q 282 760 365 794 q 432 725 360 725 q 443 725 438 725 l 444 722 q 431 706 442 717 l 419 694 q 431 681 421 692 q 454 646 454 654 q 442 644 453 644 q 394 651 432 644 q 390 635 394 650 q 383 615 386 621 l 379 615 q 271 736 342 683 q 321 581 281 646 l 318 578 l 282 586 q 257 532 264 536 q 232 586 250 535 l 196 578 l 193 581 q 243 736 232 646 q 135 615 172 683 l 131 615 q 124 635 128 621 q 119 651 119 650 q 72 644 82 644 q 60 646 61 644 q 94 694 60 650 l 83 706 q 69 722 72 717 l 71 725 q 82 725 76 725 q 231 760 153 725 q 81 794 147 794 q 71 794 76 794 l 69 797 q 83 814 72 803 l 94 825 q 83 839 93 828 q 60 874 60 865 q 72 875 61 875 q 119 868 82 875 q 124 884 119 869 q 131 904 128 899 l 135 904 q 243 783 171 838 q 193 939 231 874 l 196 942 l 232 933 q 257 988 250 983 q 282 933 264 985 z "},"+":{"ha":764,"x_min":81,"x_max":696,"o":"m 415 308 q 428 0 415 132 l 364 -12 l 350 -3 l 350 308 l 92 308 l 81 318 l 93 389 q 350 379 263 381 l 350 661 l 415 674 l 422 665 q 415 379 415 482 l 415 378 q 550 376 467 376 q 688 381 633 376 l 696 372 l 683 308 l 415 308 z "},",":{"ha":296,"x_min":50,"x_max":222,"o":"m 222 64 q 175 -78 222 -6 q 64 -193 128 -150 l 50 -179 q 103 -94 79 -144 q 128 -6 126 -43 q 72 64 92 28 q 104 102 81 81 q 147 133 128 124 q 189 101 165 122 q 222 64 213 79 z "},"-":{"ha":397,"x_min":39,"x_max":361,"o":"m 111 400 q 350 414 233 400 l 361 407 l 353 349 l 51 328 l 39 336 l 47 400 l 111 400 z "},".":{"ha":294,"x_min":72,"x_max":222,"o":"m 222 64 q 188 18 213 46 q 147 -21 164 -10 q 106 18 131 -10 q 72 64 82 46 q 104 102 81 81 q 147 133 128 124 q 189 101 165 122 q 222 64 213 79 z "},"/":{"ha":492,"x_min":22,"x_max":481,"o":"m 85 -57 l 78 -57 q 22 -15 46 -43 q 132 247 85 124 l 290 663 q 399 969 346 807 q 475 981 438 972 l 481 976 q 365 682 444 894 l 85 -57 z "},":":{"ha":294,"x_min":72,"x_max":222,"o":"m 222 64 q 188 18 213 46 q 147 -21 164 -10 q 106 18 131 -10 q 72 64 82 46 q 104 102 81 81 q 147 133 128 124 q 189 101 165 122 q 222 64 213 79 m 222 604 q 188 558 213 586 q 147 519 164 531 q 106 558 131 531 q 72 604 82 586 q 104 642 81 621 q 147 674 128 664 q 189 641 165 663 q 222 604 213 619 z "},";":{"ha":294,"x_min":50,"x_max":222,"o":"m 222 64 q 175 -78 222 -6 q 64 -193 128 -150 l 50 -179 q 103 -94 79 -144 q 128 -6 126 -43 q 72 64 92 28 q 104 102 81 81 q 147 133 128 124 q 189 101 165 122 q 222 64 213 79 m 222 604 q 188 558 213 586 q 147 519 164 531 q 106 558 131 531 q 72 604 82 586 q 104 642 81 621 q 147 674 128 664 q 189 641 165 663 q 222 604 213 619 z "},"<":{"ha":764,"x_min":72,"x_max":692,"o":"m 656 76 q 72 308 361 222 l 92 397 q 346 488 169 421 q 658 624 522 554 l 692 560 l 685 546 l 186 353 l 186 347 l 685 156 l 692 142 l 656 76 z "},"=":{"ha":764,"x_min":74,"x_max":689,"o":"m 86 282 q 474 269 322 269 q 681 274 626 269 l 689 265 l 676 201 l 85 201 l 74 211 l 86 282 m 86 496 q 474 483 322 483 q 681 488 626 483 l 689 479 l 676 415 l 85 415 l 74 425 l 86 496 z "},">":{"ha":764,"x_min":72,"x_max":692,"o":"m 692 308 q 108 76 403 222 l 72 142 l 79 156 l 578 347 l 578 353 l 79 546 l 72 560 l 106 624 q 418 488 242 554 q 672 397 594 421 l 692 308 z "},"?":{"ha":465,"x_min":24,"x_max":465,"o":"m 332 778 q 299 855 332 829 q 214 881 265 881 q 124 861 163 881 q 114 817 114 844 q 128 776 114 789 l 126 767 q 60 711 90 744 q 33 724 43 713 q 24 751 24 736 q 98 880 24 815 q 249 967 172 944 q 413 913 361 967 q 465 746 465 858 q 246 489 378 621 q 231 253 236 365 l 194 250 l 165 443 l 165 469 q 332 778 332 636 m 285 68 q 251 22 275 50 q 210 -17 226 -6 q 169 22 193 -6 q 135 68 144 50 q 167 106 143 85 q 210 138 190 128 q 251 105 228 126 q 285 68 275 83 z "},"@":{"ha":1194,"x_min":76,"x_max":1143,"o":"m 417 693 q 672 678 539 678 q 926 693 804 678 l 932 657 q 846 632 897 642 q 831 365 831 489 q 861 50 831 131 l 869 46 q 1008 211 961 96 q 1054 457 1054 326 q 636 856 1054 856 q 390 792 494 856 q 228 540 289 694 q 168 239 168 386 q 268 -82 168 31 q 568 -194 368 -194 q 733 -164 654 -194 l 743 -182 q 557 -264 660 -240 q 194 -147 313 -264 q 76 215 76 -29 q 233 691 76 494 q 658 925 390 888 q 1143 504 1143 925 q 1042 150 1143 297 q 779 -21 942 3 l 769 -17 q 726 218 726 69 q 726 253 726 235 q 610 260 675 260 q 507 253 544 260 q 483 100 483 156 q 532 17 483 44 l 526 -7 q 403 0 494 0 q 265 -11 313 0 l 260 25 q 351 47 301 39 l 519 635 q 413 657 446 647 l 417 693 m 519 318 q 626 310 561 310 q 726 318 690 310 q 715 621 726 551 q 658 625 689 625 q 592 622 628 625 l 519 318 z "},"A":{"ha":832,"x_min":-75,"x_max":822,"o":"m 685 940 q 658 740 665 843 q 651 410 651 638 q 669 49 651 182 q 822 22 743 42 l 818 -11 q 595 0 715 0 q 401 -11 475 0 l 396 24 q 529 53 458 43 q 544 349 540 144 q 385 357 472 357 q 239 349 299 357 q 206 131 206 213 q 265 14 206 49 l 260 -6 q 115 0 217 0 q -69 -11 13 0 l -75 24 q 58 53 -12 43 l 278 831 q 68 786 114 831 q 58 725 58 767 q 72 668 58 683 l 71 658 q 1 600 36 638 q -26 614 -15 601 q -36 643 -36 626 q 46 806 -36 711 q 199 925 128 900 q 624 885 408 901 q 656 949 643 910 l 685 940 m 254 418 q 402 408 317 408 q 544 418 488 408 q 538 819 544 664 l 533 824 q 354 831 461 831 l 254 418 z "},"B":{"ha":800,"x_min":-139,"x_max":733,"o":"m 74 915 q 330 904 192 904 q 502 902 468 904 q 576 892 536 900 q 639 867 617 883 q 694 752 694 829 q 640 612 694 675 q 508 517 586 549 l 508 511 q 671 465 608 511 q 733 328 733 418 q 629 114 733 217 q 404 -21 525 11 q 201 32 318 -21 q 169 -31 178 -4 l 140 -24 q 174 451 174 128 q 163 831 174 575 q -35 786 8 828 q -44 725 -44 767 q -31 668 -44 683 l -32 658 q -101 600 -67 638 q -128 614 -118 601 q -139 643 -139 626 q -66 794 -139 707 q 74 915 7 882 m 365 531 q 514 560 468 531 q 564 701 564 615 q 517 810 564 786 q 397 835 471 835 q 292 831 322 835 q 281 465 281 690 q 288 118 281 240 q 442 79 360 79 q 574 113 525 79 q 606 265 606 181 q 342 479 606 479 l 349 531 l 365 531 z "},"C":{"ha":692,"x_min":58,"x_max":721,"o":"m 247 49 q 317 -20 272 7 q 423 -47 363 -47 q 545 -12 483 -47 q 649 76 607 24 l 668 57 q 393 -160 567 -101 q 197 -99 274 -160 q 90 58 121 -37 q 58 294 58 154 q 94 560 58 435 q 217 787 129 686 q 435 925 304 888 q 721 899 575 925 l 719 868 q 653 856 683 868 q 607 660 618 774 l 572 660 q 560 785 560 725 q 398 825 486 825 q 253 772 310 825 q 182 404 182 629 q 247 49 182 153 z "},"D":{"ha":861,"x_min":-139,"x_max":803,"o":"m 142 -24 q 175 412 175 128 q 163 831 175 696 q -35 786 8 828 q -44 725 -44 767 q -31 668 -44 683 l -32 658 q -101 600 -67 638 q -128 614 -118 601 q -139 643 -139 626 q -66 794 -139 707 q 74 915 7 882 q 424 904 192 904 q 803 536 803 904 q 701 186 803 343 q 426 -21 600 29 q 203 32 326 -21 q 171 -31 179 -4 l 142 -24 m 401 839 q 294 832 338 839 q 282 471 282 701 q 289 118 282 240 q 460 79 364 79 q 608 126 556 79 q 679 446 679 256 q 620 738 679 636 q 401 839 561 839 z "},"E":{"ha":713,"x_min":69,"x_max":703,"o":"m 547 786 q 389 825 481 825 q 240 778 297 825 q 239 740 239 758 q 476 518 239 518 l 469 467 l 453 467 q 272 423 343 467 q 200 282 200 379 q 267 131 200 185 q 424 78 333 78 q 565 111 514 78 q 575 172 575 131 q 561 229 575 214 l 563 239 q 632 297 597 260 q 659 283 649 296 q 669 254 669 271 q 590 90 669 169 q 415 -21 510 10 q 168 51 267 -21 q 69 257 69 124 q 150 417 69 353 q 333 481 231 481 l 333 486 q 176 539 239 492 q 113 669 113 586 q 245 829 163 758 q 422 925 328 900 q 617 899 521 925 q 674 942 639 910 l 703 922 q 590 657 611 811 l 554 657 q 547 786 554 733 z "},"F":{"ha":678,"x_min":-153,"x_max":685,"o":"m 507 896 q 658 939 617 896 l 685 925 q 615 672 625 817 l 581 672 q 568 824 568 732 q 478 813 532 813 q 299 824 424 813 q 288 508 288 721 q 404 497 347 497 q 542 557 513 497 l 569 551 q 557 445 557 507 q 565 324 557 383 l 533 318 q 506 442 513 371 q 399 446 454 446 q 288 439 343 446 q 306 49 289 156 q 458 22 375 42 l 454 -11 q 231 0 351 0 q 38 -11 111 0 l 32 24 q 165 53 94 43 q 181 411 181 167 l 181 493 q 164 831 181 631 l 161 831 q -49 786 -3 831 q -58 725 -58 767 q -44 668 -58 683 l -46 658 q -115 600 -81 638 q -142 614 -132 601 q -153 643 -153 626 q -71 806 -153 711 q 82 925 11 900 q 309 908 179 921 q 507 896 439 896 z "},"G":{"ha":774,"x_min":58,"x_max":729,"o":"m 424 92 q 560 131 489 92 l 560 244 q 554 338 560 276 q 428 365 506 351 l 432 394 q 493 390 464 390 q 717 458 615 390 l 729 433 q 679 383 697 408 q 651 -68 653 142 q 519 -210 611 -142 q 350 -278 426 -278 q 315 -267 329 -278 q 301 -236 301 -256 q 369 -165 342 -206 l 379 -164 q 450 -187 410 -187 q 506 -179 490 -187 q 563 71 563 -103 q 393 -21 486 11 q 142 84 226 -21 q 58 374 58 189 q 160 719 58 560 q 435 925 263 878 q 725 899 579 925 l 724 868 q 657 856 689 868 q 611 660 619 768 l 576 660 q 564 789 564 717 q 404 825 499 825 q 253 778 310 825 q 182 471 182 657 q 424 92 182 92 z "},"H":{"ha":983,"x_min":-150,"x_max":1033,"o":"m 803 906 l 803 411 q 821 49 803 151 q 974 22 894 42 l 969 -11 q 759 0 881 0 q 553 -11 638 0 l 547 24 q 681 53 610 43 q 696 456 694 193 q 492 465 593 465 q 288 456 390 465 q 306 49 289 158 q 458 22 379 42 l 454 -11 q 231 0 351 0 q 38 -11 111 0 l 32 24 q 165 53 94 43 q 181 411 181 167 l 181 493 q 165 828 181 675 l 164 828 q -46 783 0 828 q -56 722 -56 764 q -42 665 -56 681 l -43 656 q -112 597 -78 635 q -140 611 -129 599 q -150 640 -150 624 q -68 803 -150 708 q 85 922 14 897 q 185 913 96 922 q 324 904 274 904 q 418 913 375 904 l 424 878 q 300 840 369 857 q 288 531 290 736 q 497 517 393 517 q 696 529 601 517 q 683 907 694 778 q 812 1092 710 992 q 990 1192 914 1192 q 1020 1181 1007 1192 q 1033 1154 1033 1171 q 975 1085 996 1119 l 965 1083 q 908 1097 950 1097 q 847 1088 867 1097 q 803 906 803 1036 z "},"I":{"ha":468,"x_min":29,"x_max":458,"o":"m 303 856 q 288 467 288 751 q 306 49 288 182 q 458 22 379 42 l 454 -11 q 231 0 351 0 q 38 -11 111 0 l 32 24 q 165 53 94 43 q 181 411 181 167 l 181 493 q 163 851 181 718 q 29 881 92 861 l 35 915 q 228 904 108 904 q 451 915 349 904 l 456 882 q 303 856 376 863 z "},"J":{"ha":468,"x_min":-146,"x_max":428,"o":"m 288 493 l 288 411 q 299 46 288 154 q -44 -251 206 -142 l -61 -222 q 126 -35 71 -132 q 181 214 181 61 l 181 493 q 168 828 181 703 q -42 783 4 828 q -51 722 -51 764 q -37 665 -51 681 l -39 656 q -108 597 -74 635 q -135 611 -125 599 q -146 640 -146 624 q -64 803 -146 708 q 89 922 18 897 q 189 913 100 922 q 328 904 278 904 q 422 913 378 904 l 428 878 q 304 840 374 857 q 288 493 288 690 z "},"K":{"ha":842,"x_min":-150,"x_max":1067,"o":"m 288 486 l 288 410 q 474 626 408 538 q 555 753 540 715 q 569 828 569 790 q 546 890 569 867 l 551 910 q 674 904 594 904 q 836 915 754 904 l 842 881 q 708 851 779 861 q 506 551 696 733 l 747 32 q 865 -114 801 -85 q 926 -96 890 -114 q 971 -60 963 -78 l 979 -57 q 1063 -96 1017 -82 q 1067 -119 1067 -104 q 1044 -147 1067 -133 q 979 -160 1021 -160 q 773 -111 892 -160 q 608 -11 654 -62 q 540 224 578 124 q 426 478 503 324 q 288 357 349 407 q 306 49 292 146 q 458 22 379 42 l 454 -11 q 231 0 351 0 q 38 -11 111 0 l 32 24 q 165 53 94 43 q 181 411 181 167 l 181 493 q 165 828 181 675 l 164 828 q -46 783 0 828 q -56 722 -56 764 q -42 665 -56 681 l -43 656 q -112 597 -78 635 q -140 611 -129 599 q -150 640 -150 624 q -68 803 -150 708 q 85 922 14 897 q 185 913 96 922 q 324 904 274 904 q 418 913 375 904 l 424 878 q 300 840 369 857 q 288 486 288 713 z "},"L":{"ha":633,"x_min":29,"x_max":699,"o":"m 303 856 q 285 467 285 733 q 296 76 285 201 q 385 74 343 74 q 594 118 549 74 q 604 179 604 138 q 590 236 604 221 l 592 246 q 661 304 626 267 q 688 290 678 303 q 699 261 699 278 q 617 99 699 193 q 464 -21 535 4 q 206 19 344 -17 q 174 -44 186 -6 l 144 -36 q 178 424 174 104 l 178 493 q 163 851 178 736 q 29 881 92 861 l 35 915 q 228 904 108 904 q 451 915 349 904 l 456 882 q 303 856 372 863 z "},"M":{"ha":1200,"x_min":-64,"x_max":1210,"o":"m 451 835 q 560 410 451 747 l 604 271 l 614 274 q 786 846 615 303 q 771 873 786 860 q 739 890 756 886 l 743 910 q 933 904 813 904 q 1126 915 1054 904 l 1133 881 q 999 851 1067 860 q 992 733 992 818 q 1015 390 992 647 q 1057 49 1038 133 q 1210 22 1131 42 l 1206 -11 q 983 0 1103 0 q 790 -11 864 0 l 785 24 q 918 53 847 43 q 903 417 918 185 q 864 814 888 649 l 860 815 q 651 146 661 265 q 517 40 561 92 l 500 51 q 503 97 503 82 q 321 815 503 260 l 315 814 l 272 510 q 244 151 244 311 q 256 67 244 100 q 304 14 268 33 l 299 -6 q 152 0 256 0 q -33 -11 49 0 l -39 24 q 94 53 24 43 l 250 828 q 40 783 86 828 q 31 722 31 764 q 44 665 31 681 l 43 656 q -26 597 8 635 q -53 611 -43 599 q -64 640 -64 624 q 18 803 -64 708 q 171 922 100 897 q 271 913 182 922 q 409 904 360 904 q 503 913 458 904 l 508 878 q 451 835 451 856 z "},"N":{"ha":981,"x_min":-150,"x_max":956,"o":"m 726 411 q 706 759 726 649 q 626 890 685 869 l 632 910 q 772 904 675 904 q 951 915 869 904 l 956 883 q 818 856 857 860 q 800 493 800 719 l 800 411 q 818 49 800 151 q 951 24 889 40 l 946 -11 q 798 0 872 0 q 678 -4 724 0 q 588 200 678 42 q 260 729 497 358 l 254 726 l 254 493 q 306 49 254 153 q 457 22 382 42 l 454 -11 q 231 0 351 0 q 38 -11 111 0 l 32 24 q 165 53 94 43 q 181 411 181 167 l 181 493 q 164 828 181 689 q -46 783 0 828 q -56 722 -56 764 q -42 665 -56 681 l -43 656 q -112 597 -78 635 q -140 611 -129 599 q -150 640 -150 624 q -68 803 -150 708 q 85 922 14 897 q 178 913 101 921 q 306 904 256 904 q 399 913 356 904 l 404 878 q 347 832 347 854 q 426 674 354 794 q 721 208 499 554 l 726 211 l 726 411 z "},"O":{"ha":836,"x_min":58,"x_max":778,"o":"m 435 925 q 691 824 604 925 q 778 534 778 722 q 683 195 778 346 q 418 -21 588 44 q 157 87 256 -21 q 58 368 58 194 q 264 838 58 651 l 281 826 q 182 471 182 683 q 252 199 182 319 q 447 79 322 79 q 585 128 529 79 q 654 431 654 256 q 567 767 654 660 q 449 825 519 825 q 382 804 413 825 q 339 750 351 783 q 351 685 339 722 q 383 639 364 649 l 386 629 q 340 550 356 592 q 329 549 338 549 q 279 638 279 549 q 435 925 279 788 z "},"P":{"ha":711,"x_min":-132,"x_max":718,"o":"m 164 53 q 181 424 181 167 q 167 831 181 681 q -28 786 15 828 q -37 725 -37 767 q -24 668 -37 683 l -25 658 q -94 600 -60 638 q -122 614 -111 601 q -132 643 -132 626 q -59 794 -132 707 q 81 915 14 882 q 450 904 199 904 q 651 856 583 904 q 718 685 718 807 q 617 486 718 563 q 381 410 515 410 q 350 411 360 410 l 356 456 l 372 456 q 532 508 476 456 q 588 660 588 561 q 541 797 588 760 q 393 835 494 835 q 299 831 340 835 q 288 440 288 707 q 304 49 288 172 q 457 22 378 42 l 453 -11 q 230 0 350 0 q 36 -11 110 0 l 31 24 q 164 53 93 43 z "},"Q":{"ha":836,"x_min":74,"x_max":1079,"o":"m 1079 -108 q 1007 -193 1079 -151 q 851 -256 935 -235 q 717 -278 768 -278 q 293 -78 432 -78 q 144 -125 206 -78 l 121 -103 q 224 -31 160 -68 q 340 22 289 6 q 388 15 350 22 q 654 431 654 156 q 597 704 654 593 q 515 793 568 761 q 383 825 461 825 q 253 778 306 825 q 193 521 193 675 q 358 196 193 196 q 425 217 394 196 q 468 271 456 238 q 456 335 468 299 q 424 382 443 372 l 421 392 q 467 471 451 429 q 478 472 469 472 q 528 383 528 472 q 372 96 528 233 q 151 181 228 96 q 74 428 74 265 q 173 735 74 590 q 435 925 272 879 q 691 824 604 925 q 778 539 778 722 q 692 214 778 356 q 444 0 607 72 q 685 -116 524 -26 q 897 -206 847 -206 q 947 -171 926 -206 q 967 -101 967 -136 l 972 -92 q 1063 -78 1018 -92 q 1079 -108 1079 -90 z "},"R":{"ha":860,"x_min":-112,"x_max":885,"o":"m 182 49 q 200 431 200 182 q 186 831 200 681 q -8 786 35 828 q -18 725 -18 767 q -4 668 -18 683 l -6 658 q -75 600 -40 638 q -102 614 -92 601 q -112 643 -112 626 q -40 794 -112 707 q 100 915 33 882 q 442 904 218 904 q 657 862 583 904 q 731 700 731 819 q 557 464 731 531 l 751 53 q 885 24 822 43 l 879 -11 q 702 0 797 0 q 564 -6 607 0 l 558 14 q 582 93 582 38 q 451 447 582 204 q 371 454 417 454 l 375 485 l 392 485 q 546 534 492 485 q 600 677 600 583 q 551 803 600 771 q 399 835 503 835 q 318 831 350 835 q 307 432 307 707 q 322 53 307 157 q 456 24 393 43 l 450 -11 q 256 0 376 0 q 33 -11 136 0 l 29 22 q 182 49 108 42 z "},"S":{"ha":646,"x_min":15,"x_max":607,"o":"m 15 17 q 69 228 15 139 q 181 317 122 317 q 211 307 196 317 l 215 297 q 193 210 197 263 l 185 204 q 164 207 179 207 q 119 190 149 207 q 72 157 89 174 q 63 113 63 138 q 151 1 63 47 q 321 -46 239 -46 q 492 149 492 -46 q 351 333 492 222 q 235 428 293 381 q 94 621 94 539 q 182 802 94 718 q 381 925 269 886 q 607 901 500 925 l 607 874 q 526 668 535 807 l 492 668 q 485 797 492 742 q 355 825 425 825 q 236 795 285 825 q 188 719 188 765 q 228 627 188 674 q 328 537 269 581 q 444 448 386 493 q 542 351 501 403 q 583 250 583 299 q 507 3 583 111 q 299 -160 431 -106 q 21 -62 125 -142 q 15 17 15 -24 z "},"T":{"ha":721,"x_min":-60,"x_max":764,"o":"m 175 925 q 395 908 271 921 q 572 896 519 896 q 651 904 625 896 q 742 997 715 965 l 764 981 q 675 781 690 885 l 629 793 q 424 826 538 818 q 414 428 414 675 q 432 49 414 182 q 585 22 501 42 l 581 -11 q 358 0 478 0 q 164 -11 238 0 l 158 24 q 292 53 221 43 q 307 411 307 167 l 307 493 q 290 831 307 631 l 254 831 q 44 786 90 831 q 35 725 35 767 q 49 668 35 683 l 47 658 q -22 600 13 638 q -49 614 -39 601 q -60 643 -60 626 q 22 806 -60 711 q 175 925 104 900 z "},"U":{"ha":924,"x_min":-156,"x_max":914,"o":"m 274 763 q 254 451 254 588 q 261 267 254 315 q 289 178 268 219 q 444 92 329 92 q 629 156 560 92 q 636 517 636 336 q 621 856 636 697 q 488 885 550 865 l 493 915 q 699 904 578 904 q 910 915 821 904 l 914 886 q 761 860 835 867 q 743 493 743 757 l 743 411 q 761 49 743 151 q 914 22 835 42 l 910 -11 q 729 0 821 0 q 613 -1 638 0 l 608 18 q 626 117 621 33 q 424 -21 546 26 q 205 70 267 -21 q 143 335 143 161 q 153 586 143 414 q 163 779 163 758 q 158 828 163 800 q -51 783 -6 828 q -61 722 -61 764 q -47 665 -61 681 l -49 656 q -118 597 -83 635 q -145 611 -135 599 q -156 640 -156 624 q -74 803 -156 708 q 79 922 8 897 q 163 913 111 921 q 258 904 215 904 q 340 910 301 904 l 346 890 q 274 763 283 856 z "},"V":{"ha":832,"x_min":-228,"x_max":879,"o":"m 588 -11 q 405 0 506 0 q 261 -6 304 0 l 256 14 q 288 31 272 19 q 303 57 303 43 q 118 735 303 158 q 85 828 101 788 q -124 783 -78 828 q -133 722 -133 764 q -119 665 -133 681 l -121 656 q -190 597 -156 635 q -217 611 -207 599 q -228 640 -228 624 q -146 803 -228 708 q 7 922 -64 897 q 107 913 18 922 q 247 904 196 904 q 340 913 297 904 l 346 878 q 228 842 301 861 q 301 503 242 724 q 426 96 360 283 q 583 488 543 354 q 622 719 622 622 q 553 890 622 850 l 558 910 q 697 904 601 904 q 874 915 792 904 l 879 881 q 746 851 817 861 q 753 771 753 803 q 692 508 753 649 q 460 49 632 368 q 593 19 531 39 l 588 -11 z "},"W":{"ha":1258,"x_min":-228,"x_max":1306,"o":"m 518 -6 q 378 0 451 0 q 261 -6 304 0 l 256 14 q 288 31 272 19 q 303 57 303 43 q 118 735 303 158 q 85 828 101 788 q -124 783 -78 828 q -133 722 -133 764 q -119 665 -133 681 l -121 656 q -190 597 -156 635 q -217 611 -207 599 q -228 640 -228 624 q -146 803 -228 708 q 7 922 -64 897 q 107 913 18 922 q 249 904 196 904 l 411 904 q 846 918 711 904 l 851 883 q 718 851 790 864 q 725 763 725 803 q 714 664 725 724 q 881 96 767 428 q 1016 490 983 356 q 1049 719 1049 624 q 979 890 1049 850 l 985 910 q 1123 904 1028 904 q 1300 915 1218 904 l 1306 881 q 1172 851 1243 861 q 1179 771 1179 803 q 1122 503 1179 654 q 913 47 1064 351 q 976 24 936 35 l 972 -6 q 832 0 906 0 q 715 -6 758 0 l 710 14 q 742 31 726 19 q 757 57 757 43 q 658 472 757 139 l 653 472 q 458 47 588 304 q 522 24 482 35 l 518 -6 m 426 96 q 562 490 529 356 q 594 719 594 624 q 560 842 594 814 q 417 871 525 871 q 228 846 310 871 q 299 508 240 732 q 426 96 358 285 z "},"X":{"ha":896,"x_min":-114,"x_max":915,"o":"m 628 846 q 600 890 628 876 l 606 910 q 752 904 675 904 q 901 915 829 904 l 908 881 q 774 851 842 860 q 510 483 700 735 l 782 53 q 915 24 853 43 l 910 -11 q 733 0 828 0 q 594 -6 638 0 l 589 14 q 594 44 594 25 q 435 397 594 135 q 256 49 256 99 q 408 22 329 42 l 404 -11 q 180 0 293 0 q -12 -11 67 0 l -19 24 q 115 53 47 44 q 399 454 199 185 l 175 828 q -10 783 36 828 q -19 722 -19 764 q -6 665 -19 681 l -7 656 q -76 597 -42 635 q -103 611 -93 599 q -114 640 -114 624 q -32 803 -114 708 q 121 922 50 897 q 221 913 132 922 q 360 904 310 904 q 454 913 411 904 l 460 878 q 336 840 406 857 q 475 538 347 750 q 628 846 628 788 z "},"Y":{"ha":757,"x_min":-231,"x_max":839,"o":"m 325 340 l 325 376 l 89 882 q -29 1028 35 999 q -90 1010 -54 1028 q -135 974 -126 992 l -143 971 q -226 1010 -181 996 q -231 1033 -231 1018 q -208 1060 -231 1047 q -143 1074 -185 1074 q 63 1025 -56 1074 q 228 925 182 976 q 292 710 257 800 q 404 468 328 621 q 558 846 558 769 q 531 890 558 876 l 536 910 q 683 904 606 904 q 832 915 760 904 l 839 881 q 704 851 772 860 l 432 414 q 450 49 432 182 q 603 22 524 42 l 599 -11 q 376 0 496 0 q 182 -11 256 0 l 176 24 q 310 53 239 43 q 325 340 325 167 z "},"Z":{"ha":638,"x_min":-51,"x_max":856,"o":"m 171 849 q 82 757 82 849 q 86 725 82 739 l 83 714 q 0 676 38 701 q -25 715 -25 686 q 80 854 -25 785 q 282 950 185 924 q 462 895 417 900 q 532 890 507 890 q 679 943 635 890 l 710 918 q 583 754 640 854 l 214 117 q 360 28 285 85 q 486 -76 436 -29 q 674 -196 613 -196 q 723 -161 703 -196 q 743 -92 743 -126 l 749 -82 q 839 -68 794 -82 q 856 -99 856 -81 q 783 -183 856 -142 q 628 -247 711 -225 q 493 -268 544 -268 q 280 -58 364 -124 q 117 8 196 8 q -21 -49 39 8 l -51 -24 q 119 199 29 51 l 499 824 q 451 806 476 813 q 171 849 253 849 z "},"[":{"ha":453,"x_min":131,"x_max":411,"o":"m 375 -268 q 140 -289 225 -268 l 131 -282 q 144 344 144 -186 q 131 971 144 875 l 140 978 q 375 957 225 957 q 411 957 393 957 l 411 928 q 228 904 303 925 l 228 -215 q 411 -239 303 -236 l 411 -268 q 375 -268 393 -268 z "},"\\":{"ha":488,"x_min":29,"x_max":449,"o":"m 392 -62 l 385 -62 l 138 664 q 29 967 74 854 q 96 996 74 982 l 101 996 q 197 685 138 864 l 349 243 q 449 -24 393 114 q 392 -62 429 -46 z "},"]":{"ha":453,"x_min":42,"x_max":322,"o":"m 78 957 q 313 978 228 957 l 322 971 q 308 344 308 875 q 322 -282 308 -186 l 313 -289 q 78 -268 228 -268 q 42 -268 60 -268 l 42 -239 q 225 -215 150 -236 l 225 904 q 42 928 150 925 l 42 957 q 78 957 60 957 z "},"^":{"ha":719,"x_min":69,"x_max":650,"o":"m 360 806 l 110 404 l 69 425 q 321 953 197 644 l 394 967 q 650 425 526 636 l 610 404 l 360 806 z "},"_":{"ha":854,"x_min":-4,"x_max":860,"o":"m 7 -186 q 520 -199 243 -199 q 851 -194 797 -199 l 860 -203 l 849 -257 l 7 -257 l -4 -247 l 7 -186 z "},"`":{"ha":278,"x_min":0,"x_max":278,"o":"m 35 1008 q 65 1011 49 1011 q 94 1010 81 1011 q 177 893 128 951 q 278 800 226 835 l 263 775 l 0 926 q 13 969 1 940 q 35 1008 25 997 z "},"a":{"ha":743,"x_min":-19,"x_max":699,"o":"m 150 739 q 414 724 281 724 q 676 739 547 724 l 682 703 q 596 678 640 686 q 581 361 581 564 q 596 44 581 158 q 699 24 624 40 l 693 -11 q 522 0 626 0 q 363 -11 418 0 l 357 25 q 464 47 404 40 q 476 271 472 128 q 346 278 411 278 q 232 271 281 278 q 204 113 204 157 q 253 17 204 44 l 247 -7 q 126 0 215 0 q -14 -11 38 0 l -19 25 q 72 47 14 38 l 253 681 q 146 703 192 690 l 150 739 m 243 336 q 363 328 297 328 q 476 336 429 328 q 465 668 476 593 q 395 671 418 671 q 325 668 372 671 l 243 336 z "},"b":{"ha":728,"x_min":53,"x_max":642,"o":"m 53 721 l 385 731 q 567 697 521 731 q 611 603 611 667 q 566 490 611 540 q 456 414 521 439 l 456 408 q 590 373 539 408 q 642 258 642 338 q 553 94 642 178 q 371 -17 464 10 q 280 -3 338 -17 q 186 25 222 11 q 158 -26 171 7 l 129 -19 q 156 330 156 104 q 143 668 156 556 q 53 686 96 686 l 53 721 m 326 428 q 451 451 413 428 q 486 561 486 494 q 354 682 486 682 q 269 667 308 682 q 260 376 260 572 q 265 103 260 181 q 391 72 322 72 q 496 99 460 72 q 519 213 519 146 q 465 342 519 304 q 308 379 411 379 l 314 428 l 326 428 z "},"c":{"ha":603,"x_min":63,"x_max":613,"o":"m 374 81 q 554 165 469 81 l 574 146 q 350 -17 481 28 q 139 69 215 -17 q 63 299 63 154 q 153 572 63 444 q 383 740 243 700 q 613 719 485 740 l 611 689 q 561 679 585 689 q 526 531 535 617 l 492 531 q 481 628 481 578 q 356 654 428 654 q 236 615 283 654 q 182 376 182 517 q 275 103 182 158 q 374 81 315 81 z "},"d":{"ha":749,"x_min":50,"x_max":699,"o":"m 50 721 l 369 731 q 613 656 528 731 q 699 431 699 581 q 605 153 699 282 q 372 -17 511 24 q 278 -3 336 -17 q 183 25 221 10 q 156 -26 168 7 l 126 -19 q 153 330 153 104 q 140 668 153 556 q 50 686 93 686 l 50 721 m 528 582 q 458 656 503 629 q 359 682 413 682 q 267 667 306 682 q 257 378 257 576 q 263 104 257 181 q 405 72 332 72 q 521 110 478 72 q 574 356 574 210 q 528 582 574 492 z "},"e":{"ha":622,"x_min":63,"x_max":613,"o":"m 182 343 q 228 150 186 219 q 369 81 269 81 q 554 165 469 81 l 574 146 q 350 -17 481 28 q 139 69 215 -17 q 63 299 63 154 q 153 572 63 444 q 383 740 243 700 q 613 719 485 740 l 611 689 q 561 679 585 689 q 526 531 535 617 l 492 531 q 481 628 481 578 q 356 654 428 654 q 236 615 283 654 q 182 410 189 529 q 307 400 240 400 q 446 449 422 400 l 475 444 q 463 363 463 403 q 472 264 463 322 l 439 258 q 417 344 424 300 q 306 350 361 350 q 182 343 251 350 z "},"f":{"ha":611,"x_min":60,"x_max":594,"o":"m 488 649 q 375 672 439 672 q 278 667 311 672 q 267 410 267 592 q 360 400 315 400 q 465 449 442 400 l 494 444 q 482 363 482 403 q 492 264 482 322 l 458 258 q 436 344 443 300 q 353 350 381 350 q 267 343 325 350 q 279 46 267 154 q 403 24 340 39 l 399 -11 q 235 0 331 0 q 68 -11 139 0 l 63 25 q 150 46 104 39 q 163 329 163 146 l 163 394 q 149 678 163 522 q 60 703 99 688 l 64 738 q 333 724 168 724 q 588 739 497 724 l 594 711 q 532 538 539 653 l 497 538 q 488 649 488 583 z "},"g":{"ha":683,"x_min":63,"x_max":631,"o":"m 374 81 q 492 115 433 81 l 489 196 q 485 264 485 261 q 390 286 446 276 l 394 315 q 443 313 428 313 q 617 364 539 313 l 631 339 q 600 307 614 324 q 575 -4 581 118 l 546 -4 q 513 81 535 47 q 350 -17 432 10 q 139 69 215 -17 q 63 299 63 154 q 153 572 63 444 q 383 740 243 700 q 613 719 485 740 l 611 689 q 561 679 585 689 q 526 531 535 617 l 492 531 q 481 628 481 578 q 356 654 428 654 q 236 615 283 654 q 181 376 181 514 q 222 159 181 238 q 374 81 263 81 z "},"h":{"ha":858,"x_min":61,"x_max":825,"o":"m 499 735 q 659 724 569 724 q 821 733 749 724 l 825 699 q 710 678 772 685 q 696 394 696 592 l 696 329 q 710 46 696 129 q 825 25 772 39 l 821 -10 q 659 0 749 0 q 499 -11 569 0 l 493 25 q 581 46 532 38 q 593 360 592 203 q 429 368 504 368 q 267 360 354 368 q 279 46 267 131 q 394 25 342 39 l 390 -10 q 228 0 318 0 q 68 -11 139 0 l 63 25 q 150 46 101 38 q 163 329 163 146 l 163 394 q 149 678 163 578 q 61 699 100 686 l 67 735 q 227 724 138 724 q 389 733 317 724 l 393 699 q 278 678 340 685 q 267 429 267 597 q 434 418 344 418 q 593 428 524 418 q 581 678 592 546 q 493 699 532 686 l 499 735 z "},"i":{"ha":429,"x_min":61,"x_max":394,"o":"m 278 678 q 267 371 267 603 q 279 46 267 139 q 394 25 342 39 l 390 -10 q 228 0 318 0 q 68 -11 139 0 l 63 25 q 150 46 101 38 q 163 329 163 146 l 163 394 q 149 678 163 578 q 61 699 100 686 l 67 735 q 227 724 138 724 q 389 733 317 724 l 393 699 q 278 678 340 685 z "},"j":{"ha":411,"x_min":17,"x_max":368,"o":"m 163 171 l 163 393 q 151 678 163 603 q 36 699 89 685 l 40 733 q 202 724 113 724 q 363 735 292 724 l 368 699 q 281 678 329 686 q 267 394 267 578 l 267 329 q 279 46 267 146 q 182 -93 246 -28 q 40 -203 118 -158 l 17 -176 q 131 -31 99 -114 q 163 171 163 51 z "},"k":{"ha":729,"x_min":61,"x_max":735,"o":"m 267 393 l 267 336 q 451 552 408 486 q 493 655 493 618 q 472 707 493 692 l 479 731 q 567 724 510 724 q 708 735 625 724 l 714 699 q 621 676 682 688 q 460 442 608 582 l 643 47 q 735 25 701 38 l 729 -11 q 595 0 678 0 q 479 -7 513 0 l 472 17 q 492 75 492 36 q 382 378 492 168 q 267 282 354 354 q 279 46 271 113 q 394 25 342 39 l 390 -10 q 228 0 318 0 q 68 -11 139 0 l 63 25 q 150 46 101 38 q 163 329 163 146 l 163 394 q 149 678 163 578 q 61 699 100 686 l 67 735 q 227 724 138 724 q 389 733 317 724 l 393 699 q 278 678 340 685 q 267 393 267 603 z "},"l":{"ha":565,"x_min":60,"x_max":575,"o":"m 568 -15 q 323 0 478 0 q 64 -14 168 0 l 60 21 q 149 46 99 36 q 163 329 163 129 l 163 394 q 149 678 163 567 q 61 699 103 685 l 67 735 q 233 724 138 724 q 397 735 329 724 l 401 700 q 278 678 339 685 q 267 369 267 603 q 278 57 267 135 q 372 51 311 51 q 482 75 433 51 q 501 186 501 122 l 536 186 q 575 13 542 79 l 568 -15 z "},"m":{"ha":1006,"x_min":-1,"x_max":996,"o":"m 419 78 q 376 335 419 164 q 281 668 333 507 l 275 667 l 240 408 q 218 121 218 249 q 267 17 218 43 l 261 -7 q 152 0 219 0 q 4 -11 85 0 l -1 25 q 88 47 46 40 l 217 681 q 110 703 144 693 l 114 739 q 299 724 214 724 q 432 733 385 724 l 435 710 q 397 678 397 700 q 483 325 397 647 l 514 221 l 524 224 q 650 676 524 260 q 613 710 650 700 l 615 733 q 749 724 663 724 q 935 739 836 724 l 939 703 q 843 682 901 693 q 839 584 839 649 q 857 319 839 519 q 890 44 875 119 q 996 25 942 38 l 992 -10 q 831 0 919 0 q 672 -11 743 0 l 667 25 q 765 46 713 39 q 721 664 761 374 l 717 664 q 564 117 574 242 q 496 81 535 107 q 436 31 457 56 l 419 42 l 419 78 z "},"n":{"ha":865,"x_min":58,"x_max":813,"o":"m 394 -10 q 233 0 322 0 q 72 -11 143 0 l 67 25 q 150 46 111 39 q 163 329 163 154 l 163 394 q 149 681 163 581 q 58 703 111 685 l 63 739 q 228 724 142 724 q 353 733 315 724 l 356 710 q 318 678 318 700 q 351 608 318 661 q 414 504 383 554 q 631 146 506 358 l 635 149 l 635 318 q 615 598 635 504 q 549 707 596 692 l 551 731 q 660 724 588 724 q 808 739 732 724 l 813 703 q 717 681 756 685 q 703 394 703 569 l 703 329 q 717 43 703 118 q 810 21 775 33 l 806 -15 q 675 0 736 0 q 581 -6 614 0 q 538 97 581 25 q 461 225 496 169 q 240 594 349 407 l 235 592 l 235 406 q 276 46 235 129 q 399 25 339 39 l 394 -10 z "},"o":{"ha":731,"x_min":58,"x_max":672,"o":"m 365 -17 q 143 70 228 -17 q 58 303 58 157 q 147 576 58 449 q 379 740 236 704 q 597 659 522 740 q 672 428 672 578 q 591 157 672 278 q 365 -17 510 36 m 342 656 q 233 621 279 656 q 176 376 176 524 q 271 117 176 207 q 389 68 321 68 q 499 104 457 68 q 554 342 554 201 q 504 569 554 482 q 342 656 454 656 z "},"p":{"ha":639,"x_min":60,"x_max":633,"o":"m 60 721 l 382 731 q 633 549 633 731 q 544 385 633 447 q 340 322 454 322 q 317 324 324 322 l 322 369 l 335 369 q 463 407 421 369 q 506 525 506 444 q 472 644 506 606 q 363 682 438 682 q 276 667 317 682 q 267 356 267 575 q 279 46 267 136 q 401 24 338 39 l 397 -11 q 233 0 329 0 q 67 -11 138 0 l 61 25 q 149 46 103 39 q 163 349 163 143 q 150 668 163 556 q 60 686 101 686 l 60 721 z "},"q":{"ha":731,"x_min":58,"x_max":806,"o":"m 340 -15 q 136 78 214 -7 q 58 306 58 163 q 147 576 58 449 q 379 740 236 704 q 597 659 522 740 q 672 433 672 578 q 599 170 672 288 q 396 -4 526 53 q 563 -56 449 -6 q 707 -114 676 -106 q 789 -75 751 -97 l 806 -100 q 688 -246 740 -147 l 657 -224 q 498 -133 586 -172 q 342 -93 410 -93 q 221 -133 274 -93 l 197 -111 q 340 -15 256 -50 m 342 656 q 233 621 279 656 q 176 376 176 524 q 271 117 176 207 q 389 68 321 68 q 499 104 457 68 q 554 342 554 201 q 504 569 554 482 q 342 656 454 656 z "},"r":{"ha":731,"x_min":60,"x_max":725,"o":"m 60 721 l 379 731 q 567 694 504 731 q 629 560 629 657 q 588 442 629 493 q 481 365 547 390 l 636 47 q 725 28 683 39 l 719 -10 q 588 0 661 0 q 474 -7 515 0 l 468 15 q 486 75 486 33 q 389 347 486 160 q 321 353 360 353 l 324 393 l 338 393 q 501 543 501 393 q 361 682 501 682 q 276 667 314 682 q 267 353 267 575 q 279 46 267 131 q 393 25 340 39 l 389 -10 q 227 0 317 0 q 67 -11 138 0 l 61 25 q 149 46 100 38 q 163 370 163 150 q 150 675 163 590 q 60 693 96 693 l 60 721 z "},"s":{"ha":585,"x_min":29,"x_max":526,"o":"m 154 106 q 281 79 218 79 q 381 108 343 79 q 418 192 418 138 q 261 329 418 247 q 152 403 201 360 q 103 490 103 447 q 181 639 103 564 q 340 740 258 714 q 526 719 443 740 l 526 694 q 461 535 468 636 l 426 535 q 419 632 426 574 q 315 654 371 654 q 223 630 260 654 q 186 560 186 606 q 235 490 186 528 q 343 424 285 453 q 451 351 401 394 q 500 265 500 308 q 426 99 500 182 q 264 -17 353 17 q 100 4 176 -17 q 54 -28 78 -6 l 29 -10 q 115 200 107 75 l 150 200 q 154 106 150 151 z "},"t":{"ha":599,"x_min":-6,"x_max":621,"o":"m 514 649 q 421 672 465 672 q 361 667 376 672 q 350 376 350 592 q 365 46 350 161 q 481 25 428 39 l 476 -10 q 310 0 404 0 q 146 -11 217 0 l 140 25 q 236 46 168 33 q 249 329 249 146 l 249 394 q 233 667 249 492 q 176 672 218 672 q 88 653 135 672 q 68 538 74 610 l 32 538 q -6 714 32 651 l 1 738 q 301 724 108 724 q 613 739 494 724 l 621 713 q 574 637 586 674 q 558 538 561 600 l 524 538 q 514 649 514 583 z "},"u":{"ha":803,"x_min":42,"x_max":760,"o":"m 640 394 l 640 329 q 654 44 640 139 q 760 25 718 36 l 756 -10 q 616 0 688 0 q 518 -4 544 0 l 513 14 q 529 93 525 28 q 363 -17 457 18 q 124 268 124 -17 q 133 468 124 331 q 143 629 143 606 q 135 675 143 653 l 135 676 q 42 697 76 686 l 47 735 q 193 724 128 724 q 300 731 258 724 l 306 707 q 247 611 256 681 q 231 338 231 478 q 263 138 231 197 q 385 79 296 79 q 531 131 475 79 q 536 393 536 242 q 525 678 536 544 q 410 699 463 685 l 414 733 q 576 724 486 724 q 736 735 665 724 l 742 699 q 654 678 703 686 q 640 394 640 585 z "},"v":{"ha":707,"x_min":-36,"x_max":725,"o":"m 490 -8 q 341 0 431 0 q 211 -6 251 0 l 207 17 q 231 31 219 19 q 243 53 243 43 q 97 588 243 132 q 64 676 78 649 q -36 699 18 682 l -31 735 q 129 724 25 724 q 300 735 233 724 l 306 700 q 203 679 231 683 q 260 408 213 588 q 364 76 308 229 q 488 390 457 283 q 519 586 519 497 q 463 706 519 675 l 468 729 q 574 722 510 722 q 719 733 639 722 l 725 697 q 636 675 678 682 q 642 599 642 633 q 631 517 642 565 q 583 386 621 469 q 408 46 535 283 q 497 22 436 43 l 490 -8 z "},"w":{"ha":1032,"x_min":-36,"x_max":1047,"o":"m 454 -8 q 323 0 404 0 q 201 -6 242 0 l 197 17 q 222 31 210 19 q 233 53 233 43 q 88 588 233 132 q 54 676 68 649 q -36 700 25 681 l -31 736 q 333 724 92 724 q 682 735 574 724 l 688 699 q 606 675 626 678 q 608 599 608 654 q 590 468 608 544 q 713 76 638 283 q 824 390 796 283 q 851 586 851 497 q 794 706 851 675 l 800 729 q 901 722 842 722 q 1042 733 961 722 l 1047 697 q 968 675 992 679 q 974 617 974 633 q 928 400 974 515 q 754 46 882 285 q 818 22 781 33 l 811 -8 q 683 0 761 0 q 564 -6 604 0 l 560 17 q 584 31 572 19 q 596 53 596 43 q 528 333 596 104 q 397 46 442 135 q 461 22 424 33 l 454 -8 m 354 76 q 463 388 436 281 q 490 569 490 494 q 463 668 490 644 q 353 692 435 692 q 193 676 272 692 q 251 407 203 585 q 354 76 299 229 z "},"x":{"ha":732,"x_min":-10,"x_max":742,"o":"m 328 -11 q 156 0 261 0 q -4 -11 51 0 l -10 25 q 82 47 49 43 q 197 204 108 88 q 317 364 285 321 l 108 676 q 15 699 68 681 l 21 735 q 192 724 76 724 q 374 735 307 724 l 379 700 q 275 679 307 683 q 390 439 278 624 q 507 672 507 632 q 469 707 507 697 l 475 731 q 584 724 517 724 q 732 735 651 724 l 738 699 q 640 676 699 686 q 538 538 621 646 q 422 386 456 431 l 644 47 q 742 25 703 38 l 736 -11 q 586 0 656 0 q 475 -7 517 0 l 469 17 q 481 42 481 24 q 353 318 481 107 q 210 44 219 96 l 213 44 q 333 24 286 35 l 328 -11 z "},"y":{"ha":646,"x_min":-21,"x_max":697,"o":"m 467 676 q 429 707 467 699 l 435 731 q 544 724 476 724 q 692 735 611 724 l 697 699 q 606 678 661 686 l 375 331 q 389 46 375 150 q 503 25 450 39 l 499 -10 q 333 0 426 0 q 168 -11 239 0 l 163 25 q 257 46 189 33 q 269 272 269 121 l 269 301 q 65 679 108 626 q -21 699 26 683 l -15 735 q 144 724 40 724 q 315 735 249 724 l 321 700 q 211 679 256 685 q 343 375 258 535 q 467 676 467 615 z "},"z":{"ha":611,"x_min":6,"x_max":600,"o":"m 464 711 q 571 753 525 711 l 600 731 q 511 610 561 696 l 210 89 l 214 86 l 381 86 q 471 107 443 86 q 478 203 478 153 l 514 203 q 600 -3 522 76 l 572 -22 q 550 -3 567 -14 q 167 24 392 24 q 35 -22 74 24 l 6 1 q 108 131 68 64 l 424 644 l 421 647 l 271 647 q 154 626 203 647 q 126 533 146 578 l 93 538 q 96 614 96 579 q 85 692 96 649 q 38 710 63 704 l 40 740 q 217 726 64 740 q 464 711 371 711 z "},"{":{"ha":417,"x_min":61,"x_max":317,"o":"m 311 -299 q 184 -221 244 -279 q 124 -99 124 -162 q 142 80 124 -35 q 161 260 161 194 q 67 328 161 310 l 61 354 q 161 429 161 376 q 142 610 161 494 q 124 788 124 725 q 184 910 124 851 q 311 988 244 968 l 317 968 q 246 913 279 949 q 200 839 213 876 q 231 643 200 774 q 263 457 263 513 q 136 347 243 410 l 136 342 q 263 232 243 279 q 231 46 263 176 q 200 -150 200 -85 q 246 -224 213 -187 q 317 -279 279 -260 l 311 -299 z "},"|":{"ha":331,"x_min":124,"x_max":203,"o":"m 200 -276 q 143 -300 175 -290 l 133 -296 q 124 1004 133 661 q 196 1042 171 1024 l 203 1040 q 200 -276 200 843 z "},"}":{"ha":400,"x_min":100,"x_max":356,"o":"m 106 988 q 233 910 172 968 q 293 788 293 851 q 274 610 293 725 q 256 429 256 494 q 356 354 256 376 l 350 328 q 256 260 256 310 q 274 80 256 194 q 293 -99 293 -35 q 233 -221 293 -162 q 106 -299 172 -279 l 100 -279 q 171 -224 138 -260 q 217 -150 204 -187 q 185 46 217 -85 q 154 232 154 176 q 281 342 174 279 l 281 347 q 154 457 174 410 q 185 643 154 513 q 217 839 217 774 q 171 913 204 876 q 100 968 138 949 l 106 988 z "},"~":{"ha":819,"x_min":69,"x_max":750,"o":"m 561 358 q 725 439 657 358 l 750 424 q 661 324 722 371 q 540 261 600 278 q 388 307 494 261 q 235 353 281 353 q 94 278 143 353 l 69 293 q 166 399 100 350 q 293 456 232 449 q 426 387 353 415 q 561 358 500 358 z "}," ":{"ha":250,"x_min":0,"x_max":0,"o":""},"¡":{"ha":314,"x_min":63,"x_max":242,"o":"m 92 606 q 125 642 101 621 q 167 675 149 664 q 210 644 186 665 q 242 606 233 622 q 208 560 232 588 q 167 521 183 532 q 126 560 150 532 q 92 606 101 588 m 214 -254 q 164 -270 197 -262 q 120 -278 131 -278 q 107 -278 110 -278 q 63 -222 92 -264 q 149 415 128 -4 l 185 418 l 214 -254 z "},"¢":{"ha":625,"x_min":106,"x_max":554,"o":"m 367 100 q 525 174 443 100 l 539 160 q 363 8 467 57 l 361 -128 l 354 -128 q 317 -107 332 -121 l 325 0 q 159 81 213 6 q 106 286 106 157 q 172 526 106 415 q 347 681 238 636 l 353 817 q 392 825 374 819 l 397 821 q 386 694 390 774 q 554 672 471 694 l 554 653 q 494 507 500 586 l 464 507 q 461 592 464 561 q 383 607 408 606 l 365 100 l 367 100 m 269 136 q 328 104 293 113 l 344 608 q 257 575 292 606 q 217 340 217 490 q 269 136 217 189 z "},"£":{"ha":625,"x_min":36,"x_max":611,"o":"m 144 189 l 138 335 l 138 336 l 83 332 l 71 340 l 79 404 l 143 404 q 240 620 163 524 q 433 747 318 717 q 611 725 529 747 l 611 706 q 551 549 560 642 l 521 549 q 517 638 521 606 q 397 657 458 657 q 294 621 336 657 q 251 407 251 531 q 451 424 331 410 l 463 417 l 454 358 l 249 343 q 181 122 239 208 l 185 118 q 222 132 206 128 q 244 132 233 132 q 506 103 374 132 q 538 183 519 133 l 567 174 q 551 74 551 119 q 561 -11 551 29 l 544 -22 q 143 42 331 42 q 60 -22 100 18 l 36 -1 q 136 122 88 50 q 144 189 144 151 z "},"¤":{"ha":788,"x_min":44,"x_max":781,"o":"m 597 676 l 704 789 q 778 767 763 769 l 781 761 l 643 632 q 689 486 689 574 q 610 275 689 363 q 781 115 728 163 l 778 110 q 704 88 763 107 l 564 233 q 401 161 493 179 q 211 211 288 161 l 85 88 l 78 88 q 44 153 51 117 q 160 257 79 182 q 113 397 113 315 q 185 599 113 514 q 44 724 108 668 q 78 789 51 760 l 85 789 l 231 644 q 418 726 308 707 q 597 676 524 726 m 588 434 q 588 484 588 434 q 535 592 588 533 q 390 651 482 651 q 258 615 299 651 q 214 454 214 553 q 267 296 214 356 q 411 236 319 236 q 543 272 503 236 q 588 434 588 335 z "},"¥":{"ha":625,"x_min":-29,"x_max":649,"o":"m -26 735 q 126 726 57 726 q 279 742 196 726 l 286 714 q 217 685 242 700 q 346 376 235 603 q 465 682 465 610 q 447 726 465 708 l 451 736 q 549 726 492 726 q 646 732 607 726 l 649 701 q 574 683 600 696 l 374 342 l 374 340 l 435 343 q 551 350 522 347 q 564 307 557 322 l 564 300 l 374 297 q 375 229 374 250 l 435 232 q 551 239 522 236 q 564 196 557 211 l 564 189 l 376 186 q 389 42 378 118 q 476 15 428 33 l 474 -11 q 326 0 396 0 q 186 -8 257 0 l 182 18 q 264 46 224 36 q 274 183 269 93 l 258 183 q 94 171 158 181 l 90 176 q 100 221 99 204 l 275 226 l 276 294 l 258 294 q 94 282 158 292 l 90 288 q 100 332 99 315 l 264 338 q 82 676 144 585 q -29 707 15 689 l -26 735 z "},"¦":{"ha":340,"x_min":131,"x_max":210,"o":"m 207 472 q 150 449 182 458 l 140 453 q 131 1007 139 706 q 203 1044 178 1026 l 210 1043 q 207 472 207 846 m 207 -275 q 150 -299 182 -289 l 140 -294 q 131 260 139 -42 q 203 297 178 279 l 210 296 q 207 -275 207 99 z "},"§":{"ha":649,"x_min":25,"x_max":615,"o":"m 482 200 q 507 280 507 233 q 467 372 507 326 q 369 459 426 417 q 256 546 313 501 q 118 743 118 653 q 228 852 150 794 q 365 925 307 910 q 538 903 454 925 l 538 883 q 478 738 483 817 l 447 738 q 444 822 447 792 q 335 839 390 839 q 249 807 281 839 q 239 760 239 790 q 294 656 239 711 q 416 558 349 600 q 544 459 483 515 q 615 356 606 403 q 567 267 604 321 q 501 182 531 213 l 482 200 m 174 14 l 176 -44 l 176 -50 q 300 -74 240 -74 q 392 -42 360 -74 q 401 6 401 -25 q 347 110 401 54 q 224 208 292 165 q 96 306 157 250 q 25 410 35 363 q 73 499 36 444 q 139 583 110 553 l 158 565 q 133 485 133 532 q 174 394 133 439 q 271 306 214 349 q 385 219 328 264 q 522 22 522 113 q 412 -87 490 -29 q 275 -160 333 -144 q 83 -131 175 -160 l 83 -111 q 143 35 138 -44 l 174 35 q 174 14 174 35 z "},"¨":{"ha":407,"x_min":0,"x_max":407,"o":"m 150 918 q 116 872 140 900 q 75 833 92 844 q 34 872 58 844 q 0 918 10 900 q 32 956 8 935 q 75 988 56 978 q 117 955 93 976 q 150 918 140 933 m 407 918 q 373 872 397 900 q 332 833 349 844 q 291 872 315 844 q 257 918 267 900 q 289 956 265 935 q 332 988 313 978 q 374 955 350 976 q 407 918 397 933 z "},"©":{"ha":1063,"x_min":58,"x_max":1004,"o":"m 408 465 q 408 414 408 465 q 435 304 408 363 q 534 246 463 246 q 672 307 606 246 l 689 289 q 519 165 628 213 q 363 228 415 165 q 310 399 310 290 q 377 606 310 508 q 544 738 444 703 q 711 719 632 738 l 710 696 q 676 686 686 693 q 647 571 654 638 l 622 571 q 613 644 613 613 q 526 665 574 665 q 447 643 479 665 q 408 465 408 568 m 197 117 q 127 186 197 117 q 58 451 58 256 q 197 786 58 647 q 531 925 335 925 q 865 786 726 925 q 1004 451 1004 647 q 865 117 1004 256 q 531 -21 726 -21 q 197 117 335 -21 m 240 744 q 180 683 240 744 q 119 451 119 622 q 240 159 119 281 q 531 38 360 38 q 822 159 701 38 q 943 451 943 281 q 822 744 943 622 q 531 867 701 867 q 240 744 360 867 z "},"ª":{"ha":569,"x_min":53,"x_max":544,"o":"m 53 575 q 118 790 53 692 q 292 925 183 888 q 454 901 369 925 q 482 961 472 929 l 506 954 q 481 659 481 835 q 489 417 481 483 q 544 407 510 407 l 544 382 q 389 360 479 379 l 381 364 q 393 540 393 438 l 389 540 q 295 432 349 485 q 194 360 242 379 q 91 428 129 360 q 53 575 53 496 m 151 626 q 170 514 151 572 q 225 456 189 456 q 319 510 264 456 q 393 610 375 565 q 385 825 393 775 q 275 853 333 853 q 188 825 217 853 q 151 626 151 740 z "},"«":{"ha":574,"x_min":29,"x_max":535,"o":"m 154 393 l 304 174 l 276 154 q 29 374 147 303 l 29 401 q 276 610 161 474 l 303 592 l 154 393 m 399 396 l 535 197 l 507 178 q 274 376 381 311 l 274 404 q 507 592 413 481 l 533 574 l 399 396 z "},"¬":{"ha":764,"x_min":71,"x_max":693,"o":"m 621 331 l 82 331 l 71 340 l 83 411 q 471 399 318 399 q 678 403 624 399 l 686 394 q 693 122 686 306 l 686 114 l 621 126 l 621 331 z "},"®":{"ha":603,"x_min":29,"x_max":574,"o":"m 108 501 q 69 541 108 501 q 29 694 29 581 q 108 888 29 808 q 301 967 188 967 q 494 888 415 967 q 574 694 574 808 q 494 501 574 581 q 301 422 415 422 q 108 501 188 422 m 144 853 q 111 821 144 853 q 79 694 79 789 q 144 535 79 600 q 301 469 208 469 q 458 535 394 469 q 521 694 521 600 q 458 853 521 789 q 301 917 394 917 q 144 853 208 917 m 179 840 l 304 844 q 381 831 354 844 q 407 772 407 818 q 356 706 407 726 l 415 583 l 443 576 l 443 561 q 385 565 414 565 q 333 563 356 565 l 331 572 q 339 603 339 579 q 303 699 339 626 q 282 703 292 703 l 283 718 l 289 718 q 343 772 343 718 q 297 819 343 819 q 274 815 285 819 q 272 696 272 789 q 276 583 272 603 l 307 576 l 306 561 q 240 565 274 565 q 174 561 207 565 l 174 576 q 208 583 190 581 q 214 714 214 639 q 210 818 214 789 q 179 824 193 824 l 179 840 z "},"¯":{"ha":381,"x_min":0,"x_max":381,"o":"m 75 932 q 225 928 143 928 q 369 933 307 928 l 381 926 l 368 863 l 13 858 l 0 867 l 13 936 l 75 932 z "},"°":{"ha":510,"x_min":63,"x_max":447,"o":"m 256 550 q 118 591 174 550 q 63 712 63 632 q 120 851 63 792 q 267 926 178 911 q 397 885 347 926 q 447 763 447 843 q 394 626 447 683 q 256 550 342 568 m 368 732 q 368 764 368 732 q 336 834 368 796 q 249 872 304 872 q 168 849 193 872 q 142 745 142 808 q 174 643 142 682 q 262 604 207 604 q 342 628 317 604 q 368 732 368 668 z "},"±":{"ha":764,"x_min":69,"x_max":696,"o":"m 415 371 q 428 125 415 257 l 364 113 l 350 122 l 350 371 l 92 371 l 81 381 l 93 451 q 350 442 263 443 l 350 661 l 415 674 l 422 665 q 415 442 415 543 l 415 440 q 550 439 467 439 q 688 443 633 439 l 696 435 l 683 371 l 415 371 m 82 81 q 470 68 318 68 q 676 72 622 68 l 685 64 l 672 0 l 81 0 l 69 10 l 82 81 z "},"²":{"ha":517,"x_min":44,"x_max":458,"o":"m 199 586 q 267 588 218 588 q 407 575 317 588 q 435 640 421 601 l 458 632 q 446 554 446 590 q 454 481 446 518 l 440 471 q 104 513 240 513 q 68 471 85 493 l 44 482 q 142 609 69 533 q 267 754 214 685 q 321 872 321 824 q 224 964 321 964 q 153 949 185 964 q 146 910 146 932 q 157 882 146 889 l 157 874 q 101 828 140 864 q 69 861 69 831 q 131 965 69 913 q 256 1036 193 1017 q 390 992 347 1036 q 433 856 433 947 q 169 581 328 718 l 172 576 q 199 586 188 583 z "},"³":{"ha":464,"x_min":42,"x_max":422,"o":"m 108 639 q 110 581 108 601 q 226 543 176 543 q 290 560 276 543 q 303 644 303 592 q 270 734 303 697 q 174 771 238 771 l 169 776 l 288 942 l 285 946 q 258 936 269 939 q 126 943 196 936 q 104 885 113 918 l 81 893 q 88 964 88 932 q 78 1026 88 996 l 90 1035 q 372 1010 210 1010 q 404 1035 392 1021 l 422 1019 q 257 833 393 993 q 401 642 401 807 q 331 540 383 590 q 222 471 278 490 q 42 507 124 471 l 42 524 q 83 639 74 568 l 108 639 z "},"´":{"ha":278,"x_min":0,"x_max":278,"o":"m 183 1010 q 213 1011 197 1011 q 243 1008 229 1011 q 265 969 253 997 q 278 926 276 940 l 15 775 l 0 800 q 101 893 51 835 q 183 1010 150 951 z "},"µ":{"ha":735,"x_min":96,"x_max":683,"o":"m 626 667 q 599 358 599 571 q 608 46 599 144 q 683 35 642 35 l 683 6 q 496 -21 594 1 l 486 -18 q 501 201 501 78 l 496 203 q 375 67 449 136 q 240 -21 301 -1 q 189 -1 206 -21 q 218 -272 189 -147 l 214 -276 q 108 -304 153 -287 l 96 -294 q 122 199 108 -207 l 128 460 q 128 533 128 475 q 119 649 128 590 l 125 653 q 253 674 204 661 l 261 667 q 213 239 213 468 q 242 106 213 128 q 279 93 256 93 q 404 160 332 93 q 501 288 476 228 q 482 653 501 550 q 618 674 565 661 l 626 667 z "},"¶":{"ha":711,"x_min":-7,"x_max":682,"o":"m 279 914 l 682 901 l 682 867 q 546 844 613 867 q 531 451 531 714 l 531 175 q 431 -53 515 54 q 242 -160 347 -160 q 213 -149 225 -160 q 199 -122 200 -139 q 257 -53 236 -87 l 267 -51 q 324 -65 282 -65 q 385 -56 365 -65 q 424 158 424 40 q 424 174 424 165 l 424 451 q 411 857 424 726 q 377 861 396 861 q 344 857 358 861 q 333 631 333 778 q 364 431 333 485 l 361 411 q 331 410 351 410 q 94 486 196 410 q -7 686 -7 563 q 279 914 -7 914 z "},"·":{"ha":294,"x_min":72,"x_max":222,"o":"m 222 394 q 188 349 213 376 q 147 310 164 321 q 106 349 131 321 q 72 394 82 376 q 104 433 81 411 q 147 464 128 454 q 189 431 165 453 q 222 394 213 410 z "},"¸":{"ha":256,"x_min":0,"x_max":256,"o":"m 122 -247 q 158 -240 147 -247 q 171 -197 171 -222 q 56 -135 171 -135 l 47 -129 l 100 19 l 140 22 l 107 -64 l 113 -68 q 216 -97 176 -68 q 256 -185 256 -126 q 199 -253 236 -222 q 122 -299 163 -285 q 0 -269 61 -299 q 22 -215 14 -243 l 28 -212 q 122 -247 72 -247 z "},"¹":{"ha":421,"x_min":94,"x_max":346,"o":"m 185 704 l 185 797 q 181 924 185 858 l 97 924 l 94 926 q 97 950 94 942 q 250 1033 197 978 q 286 1036 267 1036 l 290 1033 q 275 797 275 921 l 275 704 q 283 528 275 592 q 346 504 318 517 l 342 481 q 224 489 286 489 q 107 479 161 489 l 104 503 q 174 525 139 518 q 185 704 185 621 z "},"º":{"ha":549,"x_min":44,"x_max":504,"o":"m 275 360 q 110 426 175 360 q 44 600 44 493 q 111 802 44 707 q 286 925 178 897 q 449 864 393 925 q 504 696 504 803 q 440 494 504 589 q 275 360 375 400 m 256 851 q 181 825 208 851 q 143 661 143 751 q 184 503 143 571 q 294 435 225 435 q 369 463 339 435 q 406 626 406 528 q 368 788 406 724 q 256 851 331 851 z "},"»":{"ha":574,"x_min":39,"x_max":544,"o":"m 269 174 l 419 393 l 274 592 l 297 610 q 544 401 413 474 l 544 374 q 297 154 426 303 l 269 174 m 39 197 l 175 396 l 43 574 l 67 592 q 300 404 161 481 l 300 376 q 67 178 193 311 l 39 197 z "},"¼":{"ha":1153,"x_min":94,"x_max":1124,"o":"m 1013 365 l 1013 217 q 1104 261 1089 217 l 1124 256 q 1117 194 1117 221 q 1117 154 1117 167 l 1111 151 q 1014 154 1078 154 q 1021 57 1014 92 q 1083 35 1039 47 l 1079 10 q 956 18 1024 18 q 842 7 888 18 l 839 31 q 914 54 876 47 q 921 154 921 94 l 658 154 l 653 171 q 918 540 843 393 q 1017 564 968 546 l 1025 561 q 1013 365 1013 494 m 210 -58 l 203 -57 q 163 -1 179 -37 q 336 222 292 163 l 689 710 q 872 978 771 824 q 946 968 903 971 l 951 964 q 763 708 907 908 l 210 -58 m 185 593 l 185 686 q 181 813 185 747 l 97 813 l 94 815 q 97 839 94 831 q 250 922 197 867 q 286 925 267 925 l 290 922 q 275 686 275 810 l 275 593 q 283 417 275 481 q 346 393 318 406 l 342 369 q 224 378 286 378 q 107 368 161 378 l 104 392 q 174 414 139 407 q 185 593 185 510 m 917 460 q 771 226 871 363 q 921 218 832 218 l 924 460 l 917 460 z "},"½":{"ha":1153,"x_min":94,"x_max":1093,"o":"m 210 -58 l 203 -57 q 163 -1 179 -37 q 336 222 292 163 l 689 710 q 872 978 771 824 q 946 968 903 971 l 951 964 q 763 708 907 908 l 210 -58 m 185 593 l 185 686 q 181 813 185 747 l 97 813 l 94 815 q 97 839 94 831 q 250 922 197 867 q 286 925 267 925 l 290 922 q 275 686 275 810 l 275 593 q 283 417 275 481 q 346 393 318 406 l 342 369 q 224 378 286 378 q 107 368 161 378 l 104 392 q 174 414 139 407 q 185 593 185 510 m 833 115 q 903 117 854 117 q 1042 104 953 117 q 1069 169 1056 131 l 1093 161 q 1081 83 1081 119 q 1089 10 1081 47 l 1075 0 q 739 42 875 42 q 703 0 719 22 l 679 11 q 776 138 704 63 q 902 283 849 214 q 956 403 956 353 q 858 493 956 493 q 788 478 819 493 q 781 440 781 461 q 792 411 781 418 l 792 403 q 736 357 775 393 q 704 390 704 360 q 766 494 704 442 q 890 565 828 546 q 1025 521 982 565 q 1068 385 1068 476 q 804 110 963 247 l 807 106 q 833 115 822 113 z "},"¾":{"ha":1153,"x_min":42,"x_max":1124,"o":"m 1013 365 l 1013 217 q 1104 261 1089 217 l 1124 256 q 1117 194 1117 221 q 1117 154 1117 167 l 1111 151 q 1014 154 1078 154 q 1021 57 1014 92 q 1083 35 1039 47 l 1079 10 q 956 18 1024 18 q 842 7 888 18 l 839 31 q 914 54 876 47 q 921 154 921 94 l 658 154 l 653 171 q 918 540 843 393 q 1017 564 968 546 l 1025 561 q 1013 365 1013 494 m 108 528 q 110 469 108 490 q 226 432 176 432 q 290 449 276 432 q 303 533 303 481 q 270 623 303 586 q 174 660 238 660 l 169 665 l 288 831 l 285 835 q 258 825 269 828 q 126 832 196 825 q 104 774 113 807 l 81 782 q 88 853 88 821 q 78 915 88 885 l 90 924 q 372 899 210 899 q 404 924 392 910 l 422 908 q 257 722 393 882 q 401 531 401 696 q 331 429 383 479 q 222 360 278 379 q 42 396 124 360 l 42 413 q 83 528 74 457 l 108 528 m 210 -58 l 203 -57 q 163 -1 179 -37 q 336 222 292 163 l 689 710 q 872 978 771 824 q 946 968 903 971 l 951 964 q 763 708 907 908 l 210 -58 m 917 460 q 771 226 871 363 q 921 218 832 218 l 924 460 l 917 460 z "},"¿":{"ha":465,"x_min":0,"x_max":442,"o":"m 178 606 q 211 642 188 621 q 253 675 235 664 q 296 644 272 665 q 328 606 319 622 q 294 560 318 588 q 253 521 269 532 q 212 560 236 532 q 178 606 188 588 m 133 -110 q 167 -187 133 -161 q 251 -212 200 -212 q 342 -193 303 -212 q 351 -149 351 -176 q 338 -108 351 -121 l 339 -99 q 406 -43 375 -76 q 432 -56 422 -44 q 442 -83 442 -68 q 367 -212 442 -147 q 217 -299 293 -276 q 52 -244 104 -299 q 0 -78 0 -190 q 219 179 88 47 q 235 415 229 303 l 271 418 l 300 225 l 300 199 q 133 -110 133 32 z "},"À":{"ha":832,"x_min":-75,"x_max":822,"o":"m 514 1015 l 228 1119 q 234 1163 226 1133 q 249 1206 242 1193 q 307 1218 276 1215 q 525 1043 411 1093 l 514 1015 m 685 940 q 658 740 665 843 q 651 410 651 638 q 669 49 651 182 q 822 22 743 42 l 818 -11 q 595 0 715 0 q 401 -11 475 0 l 396 24 q 529 53 458 43 q 544 349 540 144 q 385 357 472 357 q 239 349 299 357 q 206 131 206 213 q 265 14 206 49 l 260 -6 q 115 0 217 0 q -69 -11 13 0 l -75 24 q 58 53 -12 43 l 278 831 q 68 786 114 831 q 58 725 58 767 q 72 668 58 683 l 71 658 q 1 600 36 638 q -26 614 -15 601 q -36 643 -36 626 q 46 806 -36 711 q 199 925 128 900 q 624 885 408 901 q 656 949 643 910 l 685 940 m 254 418 q 402 408 317 408 q 544 418 488 408 q 538 819 544 664 l 533 824 q 354 831 461 831 l 254 418 z "},"Á":{"ha":832,"x_min":-75,"x_max":822,"o":"m 735 1107 l 449 1003 l 438 1031 q 656 1206 551 1081 q 714 1193 686 1203 q 728 1151 721 1181 q 735 1107 736 1121 m 685 940 q 658 740 665 843 q 651 410 651 638 q 669 49 651 182 q 822 22 743 42 l 818 -11 q 595 0 715 0 q 401 -11 475 0 l 396 24 q 529 53 458 43 q 544 349 540 144 q 385 357 472 357 q 239 349 299 357 q 206 131 206 213 q 265 14 206 49 l 260 -6 q 115 0 217 0 q -69 -11 13 0 l -75 24 q 58 53 -12 43 l 278 831 q 68 786 114 831 q 58 725 58 767 q 72 668 58 683 l 71 658 q 1 600 36 638 q -26 614 -15 601 q -36 643 -36 626 q 46 806 -36 711 q 199 925 128 900 q 624 885 408 901 q 656 949 643 910 l 685 940 m 254 418 q 402 408 317 408 q 544 418 488 408 q 538 819 544 664 l 533 824 q 354 831 461 831 l 254 418 z "},"Â":{"ha":832,"x_min":-75,"x_max":822,"o":"m 707 993 l 483 1097 l 260 993 l 246 1019 q 469 1229 374 1100 l 497 1229 q 721 1019 593 1100 l 707 993 m 685 940 q 658 740 665 843 q 651 410 651 638 q 669 49 651 182 q 822 22 743 42 l 818 -11 q 595 0 715 0 q 401 -11 475 0 l 396 24 q 529 53 458 43 q 544 349 540 144 q 385 357 472 357 q 239 349 299 357 q 206 131 206 213 q 265 14 206 49 l 260 -6 q 115 0 217 0 q -69 -11 13 0 l -75 24 q 58 53 -12 43 l 278 831 q 68 786 114 831 q 58 725 58 767 q 72 668 58 683 l 71 658 q 1 600 36 638 q -26 614 -15 601 q -36 643 -36 626 q 46 806 -36 711 q 199 925 128 900 q 624 885 408 901 q 656 949 643 910 l 685 940 m 254 418 q 402 408 317 408 q 544 418 488 408 q 538 819 544 664 l 533 824 q 354 831 461 831 l 254 418 z "},"Ã":{"ha":832,"x_min":-75,"x_max":822,"o":"m 432 1163 q 587 1119 514 1119 q 688 1153 660 1119 l 713 1138 q 568 1024 635 1053 q 467 1045 539 1024 q 367 1067 396 1067 q 279 1033 307 1067 l 254 1049 q 432 1163 332 1133 m 685 940 q 658 740 665 843 q 651 410 651 638 q 669 49 651 182 q 822 22 743 42 l 818 -11 q 595 0 715 0 q 401 -11 475 0 l 396 24 q 529 53 458 43 q 544 349 540 144 q 385 357 472 357 q 239 349 299 357 q 206 131 206 213 q 265 14 206 49 l 260 -6 q 115 0 217 0 q -69 -11 13 0 l -75 24 q 58 53 -12 43 l 278 831 q 68 786 114 831 q 58 725 58 767 q 72 668 58 683 l 71 658 q 1 600 36 638 q -26 614 -15 601 q -36 643 -36 626 q 46 806 -36 711 q 199 925 128 900 q 624 885 408 901 q 656 949 643 910 l 685 940 m 254 418 q 402 408 317 408 q 544 418 488 408 q 538 819 544 664 l 533 824 q 354 831 461 831 l 254 418 z "},"Ä":{"ha":832,"x_min":-75,"x_max":822,"o":"m 431 1115 q 397 1069 421 1097 q 356 1031 372 1042 q 315 1069 339 1042 q 281 1115 290 1097 q 313 1153 289 1132 q 356 1185 336 1175 q 397 1152 374 1174 q 431 1115 421 1131 m 688 1115 q 653 1069 678 1097 q 613 1031 629 1042 q 572 1069 596 1042 q 538 1115 547 1097 q 569 1153 546 1132 q 613 1185 593 1175 q 654 1152 631 1174 q 688 1115 678 1131 m 685 940 q 658 740 665 843 q 651 410 651 638 q 669 49 651 182 q 822 22 743 42 l 818 -11 q 595 0 715 0 q 401 -11 475 0 l 396 24 q 529 53 458 43 q 544 349 540 144 q 385 357 472 357 q 239 349 299 357 q 206 131 206 213 q 265 14 206 49 l 260 -6 q 115 0 217 0 q -69 -11 13 0 l -75 24 q 58 53 -12 43 l 278 831 q 68 786 114 831 q 58 725 58 767 q 72 668 58 683 l 71 658 q 1 600 36 638 q -26 614 -15 601 q -36 643 -36 626 q 46 806 -36 711 q 199 925 128 900 q 624 885 408 901 q 656 949 643 910 l 685 940 m 254 418 q 402 408 317 408 q 544 418 488 408 q 538 819 544 664 l 533 824 q 354 831 461 831 l 254 418 z "},"Å":{"ha":832,"x_min":-75,"x_max":822,"o":"m 685 940 q 658 740 665 843 q 651 410 651 638 q 669 49 651 182 q 822 22 743 42 l 818 -11 q 595 0 715 0 q 401 -11 475 0 l 396 24 q 529 53 458 43 q 544 349 540 144 q 385 357 472 357 q 239 349 299 357 q 206 131 206 213 q 265 14 206 49 l 260 -6 q 115 0 217 0 q -69 -11 13 0 l -75 24 q 58 53 -12 43 l 278 831 q 68 786 114 831 q 58 725 58 767 q 72 668 58 683 l 71 658 q 1 600 36 638 q -26 614 -15 601 q -36 643 -36 626 q 46 806 -36 711 q 199 925 128 900 q 624 885 408 901 q 656 949 643 910 l 685 940 m 254 418 q 402 408 317 408 q 544 418 488 408 q 538 819 544 664 l 533 824 q 354 831 461 831 l 254 418 m 472 978 q 376 1004 415 978 q 338 1083 338 1031 q 378 1176 338 1135 q 479 1229 419 1217 q 606 1126 606 1229 q 569 1034 606 1072 q 472 978 532 996 m 540 1099 q 540 1117 540 1099 q 519 1158 540 1136 q 465 1181 497 1181 q 418 1168 433 1181 q 403 1108 403 1144 q 425 1049 403 1072 q 479 1026 447 1026 q 525 1039 511 1026 q 540 1099 540 1061 z "},"Æ":{"ha":1033,"x_min":-75,"x_max":1024,"o":"m 268 947 q 649 904 460 904 q 1018 919 838 904 l 1024 892 q 942 672 951 818 l 907 672 q 894 824 894 732 q 756 853 835 853 q 639 846 678 853 q 604 507 615 774 q 711 497 647 497 q 863 557 835 497 l 890 551 q 878 445 878 507 q 886 324 878 383 l 854 318 q 826 442 833 371 q 713 446 775 446 q 603 439 650 446 l 603 379 q 636 172 603 247 q 792 89 672 89 q 997 197 892 89 l 1017 179 q 763 -21 901 26 q 549 74 608 -21 q 489 335 489 168 q 489 350 489 342 l 490 438 q 383 446 447 446 q 285 438 319 446 l 265 374 q 213 122 213 199 q 265 14 213 44 l 260 -6 q 115 0 217 0 q -69 -11 13 0 l -75 24 q 58 53 -12 43 l 347 853 q 138 808 183 853 q 128 747 128 789 q 142 690 128 706 l 140 681 q 71 622 106 660 q 44 636 54 624 q 33 665 33 649 q 115 828 33 733 q 268 947 197 922 m 310 506 q 400 497 342 497 q 493 507 458 497 q 505 710 501 660 q 508 793 508 760 q 504 849 508 826 q 459 853 485 853 q 410 849 433 853 l 310 506 z "},"Ç":{"ha":692,"x_min":58,"x_max":721,"o":"m 331 -15 q 58 383 58 24 q 160 719 58 560 q 435 925 263 878 q 721 899 575 925 l 719 868 q 653 856 683 868 q 607 664 618 774 l 572 664 q 560 793 560 719 q 403 828 494 828 q 253 778 313 828 q 182 471 182 657 q 301 119 182 193 q 422 89 351 89 q 649 197 535 89 l 668 179 q 393 -21 553 32 q 367 -19 375 -21 l 350 -64 l 356 -68 q 459 -97 419 -68 q 499 -185 499 -126 q 442 -253 479 -222 q 365 -299 406 -285 q 243 -269 304 -299 q 265 -215 257 -243 l 271 -212 q 365 -247 315 -247 q 401 -240 390 -247 q 414 -197 414 -222 q 299 -135 414 -135 l 290 -129 l 331 -15 z "},"È":{"ha":713,"x_min":71,"x_max":704,"o":"m 465 1015 l 179 1119 q 185 1163 178 1133 q 200 1206 193 1193 q 258 1218 228 1215 q 476 1043 363 1093 l 465 1015 m 549 786 q 390 825 482 825 q 242 778 299 825 q 240 740 240 758 q 478 518 240 518 l 471 467 l 454 467 q 273 423 344 467 q 201 282 201 379 q 268 131 201 185 q 425 78 335 78 q 567 111 515 78 q 576 172 576 131 q 563 229 576 214 l 564 239 q 633 297 599 260 q 660 283 650 296 q 671 254 671 271 q 591 90 671 169 q 417 -21 511 10 q 169 51 268 -21 q 71 257 71 124 q 151 417 71 353 q 335 481 232 481 l 335 486 q 177 539 240 492 q 114 669 114 586 q 247 829 164 758 q 424 925 329 900 q 618 899 522 925 q 675 942 640 910 l 704 922 q 592 657 613 811 l 556 657 q 549 786 556 733 z "},"É":{"ha":713,"x_min":69,"x_max":703,"o":"m 663 1107 l 376 1003 l 365 1031 q 583 1206 479 1081 q 642 1193 614 1203 q 656 1151 649 1181 q 663 1107 664 1121 m 547 786 q 389 825 481 825 q 240 778 297 825 q 239 740 239 758 q 476 518 239 518 l 469 467 l 453 467 q 272 423 343 467 q 200 282 200 379 q 267 131 200 185 q 424 78 333 78 q 565 111 514 78 q 575 172 575 131 q 561 229 575 214 l 563 239 q 632 297 597 260 q 659 283 649 296 q 669 254 669 271 q 590 90 669 169 q 415 -21 510 10 q 168 51 267 -21 q 69 257 69 124 q 150 417 69 353 q 333 481 231 481 l 333 486 q 176 539 239 492 q 113 669 113 586 q 245 829 163 758 q 422 925 328 900 q 617 899 521 925 q 674 942 639 910 l 703 922 q 590 657 611 811 l 554 657 q 547 786 554 733 z "},"Ê":{"ha":713,"x_min":69,"x_max":703,"o":"m 644 993 l 421 1097 l 197 993 l 183 1019 q 407 1229 311 1100 l 435 1229 q 658 1019 531 1100 l 644 993 m 547 786 q 389 825 481 825 q 240 778 297 825 q 239 740 239 758 q 476 518 239 518 l 469 467 l 453 467 q 272 423 343 467 q 200 282 200 379 q 267 131 200 185 q 424 78 333 78 q 565 111 514 78 q 575 172 575 131 q 561 229 575 214 l 563 239 q 632 297 597 260 q 659 283 649 296 q 669 254 669 271 q 590 90 669 169 q 415 -21 510 10 q 168 51 267 -21 q 69 257 69 124 q 150 417 69 353 q 333 481 231 481 l 333 486 q 176 539 239 492 q 113 669 113 586 q 245 829 163 758 q 422 925 328 900 q 617 899 521 925 q 674 942 639 910 l 703 922 q 590 657 611 811 l 554 657 q 547 786 554 733 z "},"Ë":{"ha":713,"x_min":69,"x_max":703,"o":"m 369 1115 q 335 1069 360 1097 q 294 1031 311 1042 q 253 1069 278 1042 q 219 1115 229 1097 q 251 1153 228 1132 q 294 1185 275 1175 q 336 1152 313 1174 q 369 1115 360 1131 m 626 1115 q 592 1069 617 1097 q 551 1031 568 1042 q 510 1069 535 1042 q 476 1115 486 1097 q 508 1153 485 1132 q 551 1185 532 1175 q 593 1152 569 1174 q 626 1115 617 1131 m 547 786 q 389 825 481 825 q 240 778 297 825 q 239 740 239 758 q 476 518 239 518 l 469 467 l 453 467 q 272 423 343 467 q 200 282 200 379 q 267 131 200 185 q 424 78 333 78 q 565 111 514 78 q 575 172 575 131 q 561 229 575 214 l 563 239 q 632 297 597 260 q 659 283 649 296 q 669 254 669 271 q 590 90 669 169 q 415 -21 510 10 q 168 51 267 -21 q 69 257 69 124 q 150 417 69 353 q 333 481 231 481 l 333 486 q 176 539 239 492 q 113 669 113 586 q 245 829 163 758 q 422 925 328 900 q 617 899 521 925 q 674 942 639 910 l 703 922 q 590 657 611 811 l 554 657 q 547 786 554 733 z "},"Ì":{"ha":468,"x_min":29,"x_max":458,"o":"m 318 1015 l 32 1119 q 38 1163 31 1133 q 53 1206 46 1193 q 111 1218 81 1215 q 329 1043 215 1093 l 318 1015 m 303 856 q 288 467 288 751 q 306 49 288 182 q 458 22 379 42 l 454 -11 q 231 0 351 0 q 38 -11 111 0 l 32 24 q 165 53 94 43 q 181 411 181 167 l 181 493 q 163 851 181 718 q 29 881 92 861 l 35 915 q 228 904 108 904 q 451 915 349 904 l 456 882 q 303 856 376 863 z "},"Í":{"ha":468,"x_min":29,"x_max":458,"o":"m 438 1107 l 151 1003 l 140 1031 q 358 1206 254 1081 q 417 1193 389 1203 q 431 1151 424 1181 q 438 1107 439 1121 m 303 856 q 288 467 288 751 q 306 49 288 182 q 458 22 379 42 l 454 -11 q 231 0 351 0 q 38 -11 111 0 l 32 24 q 165 53 94 43 q 181 411 181 167 l 181 493 q 163 851 181 718 q 29 881 92 861 l 35 915 q 228 904 108 904 q 451 915 349 904 l 456 882 q 303 856 376 863 z "},"Î":{"ha":468,"x_min":4,"x_max":479,"o":"m 465 993 l 242 1097 l 18 993 l 4 1019 q 228 1229 132 1100 l 256 1229 q 479 1019 351 1100 l 465 993 m 303 856 q 288 467 288 751 q 306 49 288 182 q 458 22 379 42 l 454 -11 q 231 0 351 0 q 38 -11 111 0 l 32 24 q 165 53 94 43 q 181 411 181 167 l 181 493 q 163 851 181 718 q 29 881 92 861 l 35 915 q 228 904 108 904 q 451 915 349 904 l 456 882 q 303 856 376 863 m 303 856 q 456 882 376 863 l 451 915 q 228 904 349 904 q 35 915 108 904 l 29 881 q 163 851 92 861 q 181 493 181 718 l 181 411 q 165 53 181 167 q 32 24 94 43 l 38 -11 q 231 0 111 0 q 454 -11 351 0 l 458 22 q 306 49 379 42 q 288 467 288 182 q 303 856 288 751 z "},"Ï":{"ha":468,"x_min":29,"x_max":458,"o":"m 188 1115 q 153 1069 178 1097 q 113 1031 129 1042 q 72 1069 96 1042 q 38 1115 47 1097 q 69 1153 46 1132 q 113 1185 93 1175 q 154 1152 131 1174 q 188 1115 178 1131 m 444 1115 q 410 1069 435 1097 q 369 1031 386 1042 q 328 1069 353 1042 q 294 1115 304 1097 q 326 1153 303 1132 q 369 1185 350 1175 q 411 1152 388 1174 q 444 1115 435 1131 m 303 856 q 288 467 288 751 q 306 49 288 182 q 458 22 379 42 l 454 -11 q 231 0 351 0 q 38 -11 111 0 l 32 24 q 165 53 94 43 q 181 411 181 167 l 181 493 q 163 851 181 718 q 29 881 92 861 l 35 915 q 228 904 108 904 q 451 915 349 904 l 456 882 q 303 856 376 863 z "},"Ð":{"ha":861,"x_min":-139,"x_max":803,"o":"m -35 786 q -44 725 -44 767 q -31 668 -44 683 l -32 658 q -101 600 -67 638 q -128 614 -118 601 q -139 643 -139 626 q -66 794 -139 707 q 74 915 7 882 q 424 904 192 904 q 803 536 803 904 q 701 186 803 343 q 426 -21 600 29 q 203 32 326 -21 q 171 -31 179 -4 l 142 -24 q 175 450 175 126 q 26 438 90 446 l 22 443 q 32 488 31 471 l 175 492 q 163 831 174 688 q -35 786 8 828 m 289 118 q 460 79 364 79 q 608 126 556 79 q 679 446 679 256 q 620 738 679 636 q 401 839 561 839 q 294 832 338 839 q 282 496 282 711 l 367 499 q 483 506 456 503 q 496 463 489 478 l 496 456 l 326 453 l 282 451 q 289 118 282 240 z "},"Ñ":{"ha":981,"x_min":-150,"x_max":956,"o":"m 457 1163 q 612 1119 539 1119 q 713 1153 685 1119 l 738 1138 q 593 1024 660 1053 q 492 1045 564 1024 q 392 1067 421 1067 q 304 1033 332 1067 l 279 1049 q 457 1163 357 1133 m 726 411 q 706 759 726 649 q 626 890 685 869 l 632 910 q 772 904 675 904 q 951 915 869 904 l 956 883 q 818 856 857 860 q 800 493 800 719 l 800 411 q 818 49 800 151 q 951 24 889 40 l 946 -11 q 798 0 872 0 q 678 -4 724 0 q 588 200 678 42 q 260 729 497 358 l 254 726 l 254 493 q 306 49 254 153 q 457 22 382 42 l 454 -11 q 231 0 351 0 q 38 -11 111 0 l 32 24 q 165 53 94 43 q 181 411 181 167 l 181 493 q 164 828 181 689 q -46 783 0 828 q -56 722 -56 764 q -42 665 -56 681 l -43 656 q -112 597 -78 635 q -140 611 -129 599 q -150 640 -150 624 q -68 803 -150 708 q 85 922 14 897 q 178 913 101 921 q 306 904 256 904 q 399 913 356 904 l 404 878 q 347 832 347 854 q 426 674 354 794 q 721 208 499 554 l 726 211 l 726 411 z "},"Ò":{"ha":836,"x_min":58,"x_max":778,"o":"m 521 1015 l 235 1119 q 241 1163 233 1133 q 256 1206 249 1193 q 314 1218 283 1215 q 532 1043 418 1093 l 521 1015 m 435 925 q 691 824 604 925 q 778 534 778 722 q 683 195 778 346 q 418 -21 588 44 q 157 87 256 -21 q 58 368 58 194 q 264 838 58 651 l 281 826 q 182 471 182 683 q 252 199 182 319 q 447 79 322 79 q 585 128 529 79 q 654 431 654 256 q 567 767 654 660 q 449 825 519 825 q 382 804 413 825 q 339 750 351 783 q 351 685 339 722 q 383 639 364 649 l 386 629 q 340 550 356 592 q 329 549 338 549 q 279 638 279 549 q 435 925 279 788 z "},"Ó":{"ha":836,"x_min":58,"x_max":778,"o":"m 674 1107 l 388 1003 l 376 1031 q 594 1206 490 1081 q 653 1193 625 1203 q 667 1151 660 1181 q 674 1107 675 1121 m 435 925 q 691 824 604 925 q 778 534 778 722 q 683 195 778 346 q 418 -21 588 44 q 157 87 256 -21 q 58 368 58 194 q 264 838 58 651 l 281 826 q 182 471 182 683 q 252 199 182 319 q 447 79 322 79 q 585 128 529 79 q 654 431 654 256 q 567 767 654 660 q 449 825 519 825 q 382 804 413 825 q 339 750 351 783 q 351 685 339 722 q 383 639 364 649 l 386 629 q 340 550 356 592 q 329 549 338 549 q 279 638 279 549 q 435 925 279 788 z "},"Ô":{"ha":836,"x_min":58,"x_max":778,"o":"m 669 993 l 446 1097 l 222 993 l 208 1019 q 432 1229 336 1100 l 460 1229 q 683 1019 556 1100 l 669 993 m 435 925 q 691 824 604 925 q 778 534 778 722 q 683 195 778 346 q 418 -21 588 44 q 157 87 256 -21 q 58 368 58 194 q 264 838 58 651 l 281 826 q 182 471 182 683 q 252 199 182 319 q 447 79 322 79 q 585 128 529 79 q 654 431 654 256 q 567 767 654 660 q 449 825 519 825 q 382 804 413 825 q 339 750 351 783 q 351 685 339 722 q 383 639 364 649 l 386 629 q 340 550 356 592 q 329 549 338 549 q 279 638 279 549 q 435 925 279 788 z "},"Õ":{"ha":836,"x_min":58,"x_max":778,"o":"m 396 1163 q 551 1119 478 1119 q 651 1153 624 1119 l 676 1138 q 532 1024 599 1053 q 431 1045 503 1024 q 331 1067 360 1067 q 243 1033 271 1067 l 218 1049 q 396 1163 296 1133 m 435 925 q 691 824 604 925 q 778 534 778 722 q 683 195 778 346 q 418 -21 588 44 q 157 87 256 -21 q 58 368 58 194 q 264 838 58 651 l 281 826 q 182 471 182 683 q 252 199 182 319 q 447 79 322 79 q 585 128 529 79 q 654 431 654 256 q 567 767 654 660 q 449 825 519 825 q 382 804 413 825 q 339 750 351 783 q 351 685 339 722 q 383 639 364 649 l 386 629 q 340 550 356 592 q 329 549 338 549 q 279 638 279 549 q 435 925 279 788 z "},"Ö":{"ha":836,"x_min":58,"x_max":778,"o":"m 393 1115 q 359 1069 383 1097 q 318 1031 335 1042 q 277 1069 301 1042 q 243 1115 253 1097 q 275 1153 251 1132 q 318 1185 299 1175 q 360 1152 336 1174 q 393 1115 383 1131 m 650 1115 q 616 1069 640 1097 q 575 1031 592 1042 q 534 1069 558 1042 q 500 1115 510 1097 q 532 1153 508 1132 q 575 1185 556 1175 q 617 1152 593 1174 q 650 1115 640 1131 m 435 925 q 691 824 604 925 q 778 534 778 722 q 683 195 778 346 q 418 -21 588 44 q 157 87 256 -21 q 58 368 58 194 q 264 838 58 651 l 281 826 q 182 471 182 683 q 252 199 182 319 q 447 79 322 79 q 585 128 529 79 q 654 431 654 256 q 567 767 654 660 q 449 825 519 825 q 382 804 413 825 q 339 750 351 783 q 351 685 339 722 q 383 639 364 649 l 386 629 q 340 550 356 592 q 329 549 338 549 q 279 638 279 549 q 435 925 279 788 z "},"×":{"ha":764,"x_min":113,"x_max":660,"o":"m 593 590 l 646 542 l 432 332 q 563 208 483 279 q 660 124 643 138 l 621 69 l 606 69 l 386 285 l 167 69 l 151 69 l 113 124 q 339 332 293 285 l 126 542 l 179 590 l 190 589 q 386 379 250 522 l 582 589 l 593 590 z "},"Ø":{"ha":836,"x_min":58,"x_max":778,"o":"m 219 -121 l 213 -121 q 176 -87 190 -108 q 296 199 243 61 l 490 710 q 599 1017 546 854 q 651 1026 631 1019 l 657 1022 q 542 728 639 981 l 219 -121 m 435 925 q 691 824 604 925 q 778 534 778 722 q 683 195 778 346 q 418 -21 588 44 q 157 87 256 -21 q 58 368 58 194 q 264 838 58 651 l 281 826 q 182 471 182 683 q 252 199 182 319 q 447 79 322 79 q 585 128 529 79 q 654 431 654 256 q 567 767 654 660 q 449 825 519 825 q 382 804 413 825 q 339 750 351 783 q 351 685 339 722 q 383 639 364 649 l 386 629 q 340 550 356 592 q 329 549 338 549 q 279 638 279 549 q 435 925 279 788 z "},"Ù":{"ha":924,"x_min":-156,"x_max":914,"o":"m 544 1015 l 258 1119 q 265 1163 257 1133 q 279 1206 272 1193 q 338 1218 307 1215 q 556 1043 442 1093 l 544 1015 m 274 763 q 254 451 254 588 q 261 267 254 315 q 289 178 268 219 q 444 92 329 92 q 629 156 560 92 q 636 517 636 336 q 621 856 636 697 q 488 885 550 865 l 493 915 q 699 904 578 904 q 910 915 821 904 l 914 886 q 761 860 835 867 q 743 493 743 757 l 743 411 q 761 49 743 151 q 914 22 835 42 l 910 -11 q 729 0 821 0 q 613 -1 638 0 l 608 18 q 626 117 621 33 q 424 -21 546 26 q 205 70 267 -21 q 143 335 143 161 q 153 586 143 414 q 163 779 163 758 q 158 828 163 800 q -51 783 -6 828 q -61 722 -61 764 q -47 665 -61 681 l -49 656 q -118 597 -83 635 q -145 611 -135 599 q -156 640 -156 624 q -74 803 -156 708 q 79 922 8 897 q 163 913 111 921 q 258 904 215 904 q 340 910 301 904 l 346 890 q 274 763 283 856 z "},"Ú":{"ha":924,"x_min":-156,"x_max":914,"o":"m 747 1107 l 461 1003 l 450 1031 q 668 1206 564 1081 q 726 1193 699 1203 q 741 1151 733 1181 q 747 1107 749 1121 m 274 763 q 254 451 254 588 q 261 267 254 315 q 289 178 268 219 q 444 92 329 92 q 629 156 560 92 q 636 517 636 336 q 621 856 636 697 q 488 885 550 865 l 493 915 q 699 904 578 904 q 910 915 821 904 l 914 886 q 761 860 835 867 q 743 493 743 757 l 743 411 q 761 49 743 151 q 914 22 835 42 l 910 -11 q 729 0 821 0 q 613 -1 638 0 l 608 18 q 626 117 621 33 q 424 -21 546 26 q 205 70 267 -21 q 143 335 143 161 q 153 586 143 414 q 163 779 163 758 q 158 828 163 800 q -51 783 -6 828 q -61 722 -61 764 q -47 665 -61 681 l -49 656 q -118 597 -83 635 q -145 611 -135 599 q -156 640 -156 624 q -74 803 -156 708 q 79 922 8 897 q 163 913 111 921 q 258 904 215 904 q 340 910 301 904 l 346 890 q 274 763 283 856 z "},"Û":{"ha":924,"x_min":-156,"x_max":914,"o":"m 717 993 l 493 1097 l 269 993 l 256 1019 q 479 1229 383 1100 l 507 1229 q 731 1019 603 1100 l 717 993 m 274 763 q 254 451 254 588 q 261 267 254 315 q 289 178 268 219 q 444 92 329 92 q 629 156 560 92 q 636 517 636 336 q 621 856 636 697 q 488 885 550 865 l 493 915 q 699 904 578 904 q 910 915 821 904 l 914 886 q 761 860 835 867 q 743 493 743 757 l 743 411 q 761 49 743 151 q 914 22 835 42 l 910 -11 q 729 0 821 0 q 613 -1 638 0 l 608 18 q 626 117 621 33 q 424 -21 546 26 q 205 70 267 -21 q 143 335 143 161 q 153 586 143 414 q 163 779 163 758 q 158 828 163 800 q -51 783 -6 828 q -61 722 -61 764 q -47 665 -61 681 l -49 656 q -118 597 -83 635 q -145 611 -135 599 q -156 640 -156 624 q -74 803 -156 708 q 79 922 8 897 q 163 913 111 921 q 258 904 215 904 q 340 910 301 904 l 346 890 q 274 763 283 856 z "},"Ü":{"ha":924,"x_min":-156,"x_max":914,"o":"m 440 1115 q 406 1069 431 1097 q 365 1031 382 1042 q 324 1069 349 1042 q 290 1115 300 1097 q 322 1153 299 1132 q 365 1185 346 1175 q 407 1152 383 1174 q 440 1115 431 1131 m 697 1115 q 663 1069 688 1097 q 622 1031 639 1042 q 581 1069 606 1042 q 547 1115 557 1097 q 579 1153 556 1132 q 622 1185 603 1175 q 664 1152 640 1174 q 697 1115 688 1131 m 274 763 q 254 451 254 588 q 261 267 254 315 q 289 178 268 219 q 444 92 329 92 q 629 156 560 92 q 636 517 636 336 q 621 856 636 697 q 488 885 550 865 l 493 915 q 699 904 578 904 q 910 915 821 904 l 914 886 q 761 860 835 867 q 743 493 743 757 l 743 411 q 761 49 743 151 q 914 22 835 42 l 910 -11 q 729 0 821 0 q 613 -1 638 0 l 608 18 q 626 117 621 33 q 424 -21 546 26 q 205 70 267 -21 q 143 335 143 161 q 153 586 143 414 q 163 779 163 758 q 158 828 163 800 q -51 783 -6 828 q -61 722 -61 764 q -47 665 -61 681 l -49 656 q -118 597 -83 635 q -145 611 -135 599 q -156 640 -156 624 q -74 803 -156 708 q 79 922 8 897 q 163 913 111 921 q 258 904 215 904 q 340 910 301 904 l 346 890 q 274 763 283 856 z "},"Ý":{"ha":757,"x_min":-231,"x_max":839,"o":"m 685 1107 l 399 1003 l 388 1031 q 606 1206 501 1081 q 664 1193 636 1203 q 678 1151 671 1181 q 685 1107 686 1121 m 325 340 l 325 376 l 89 882 q -29 1028 35 999 q -90 1010 -54 1028 q -135 974 -126 992 l -143 971 q -226 1010 -181 996 q -231 1033 -231 1018 q -208 1060 -231 1047 q -143 1074 -185 1074 q 63 1025 -56 1074 q 228 925 182 976 q 292 710 257 800 q 404 468 328 621 q 558 846 558 769 q 531 890 558 876 l 536 910 q 683 904 606 904 q 832 915 760 904 l 839 881 q 704 851 772 860 l 432 414 q 450 49 432 182 q 603 22 524 42 l 599 -11 q 376 0 496 0 q 182 -11 256 0 l 176 24 q 310 53 239 43 q 325 340 325 167 z "},"Þ":{"ha":718,"x_min":29,"x_max":710,"o":"m 293 729 l 424 733 q 710 506 710 733 q 608 306 710 382 q 372 229 507 229 q 342 231 351 229 l 347 275 l 364 275 q 524 328 468 275 q 579 482 579 381 q 536 633 579 583 q 400 682 493 682 q 292 664 344 682 l 290 664 q 288 395 288 608 q 306 49 288 182 q 458 22 379 42 l 454 -11 q 231 0 351 0 q 38 -11 111 0 l 32 24 q 165 53 94 43 q 181 411 181 167 l 181 493 q 163 851 181 718 q 29 881 92 861 l 35 915 q 228 904 108 904 q 451 915 349 904 l 456 882 q 303 856 376 863 q 293 729 297 829 z "},"ß":{"ha":1157,"x_min":29,"x_max":1111,"o":"m 154 106 q 281 79 218 79 q 381 108 343 79 q 418 192 418 138 q 261 329 418 247 q 152 403 201 360 q 103 490 103 447 q 181 639 103 564 q 340 740 258 714 q 526 719 443 740 l 526 694 q 461 535 468 636 l 426 535 q 419 632 426 574 q 315 654 371 654 q 223 630 260 654 q 186 560 186 606 q 235 490 186 528 q 343 424 285 453 q 451 351 401 394 q 500 265 500 308 q 426 99 500 182 q 264 -17 353 17 q 100 4 176 -17 q 54 -28 78 -6 l 29 -10 q 115 200 107 75 l 150 200 q 154 106 150 151 m 739 106 q 865 79 803 79 q 965 108 928 79 q 1003 192 1003 138 q 844 329 1003 247 q 737 403 786 360 q 688 490 688 447 q 765 639 688 564 q 925 740 843 714 q 1111 719 1028 740 l 1111 694 q 1046 535 1053 636 l 1011 535 q 1004 632 1011 574 q 900 654 956 654 q 808 630 844 654 q 771 560 771 606 q 820 490 771 528 q 928 424 869 453 q 1035 351 986 394 q 1085 265 1085 308 q 1011 99 1085 182 q 849 -17 938 17 q 685 4 761 -17 q 639 -28 663 -6 l 614 -10 q 700 200 692 75 l 735 200 q 739 106 735 151 z "},"à":{"ha":743,"x_min":-19,"x_max":699,"o":"m 150 739 q 414 724 281 724 q 676 739 547 724 l 682 703 q 596 678 640 686 q 581 361 581 564 q 596 44 581 158 q 699 24 624 40 l 693 -11 q 522 0 626 0 q 363 -11 418 0 l 357 25 q 464 47 404 40 q 476 271 472 128 q 346 278 411 278 q 232 271 281 278 q 204 113 204 157 q 253 17 204 44 l 247 -7 q 126 0 215 0 q -14 -11 38 0 l -19 25 q 72 47 14 38 l 253 681 q 146 703 192 690 l 150 739 m 243 336 q 363 328 297 328 q 476 336 429 328 q 465 668 476 593 q 395 671 418 671 q 325 668 372 671 l 243 336 m 219 1008 q 249 1011 233 1011 q 279 1010 265 1011 q 362 893 313 951 q 463 800 411 835 l 447 775 l 185 926 q 198 969 186 940 q 219 1008 210 997 z "},"á":{"ha":743,"x_min":-19,"x_max":699,"o":"m 150 739 q 414 724 281 724 q 676 739 547 724 l 682 703 q 596 678 640 686 q 581 361 581 564 q 596 44 581 158 q 699 24 624 40 l 693 -11 q 522 0 626 0 q 363 -11 418 0 l 357 25 q 464 47 404 40 q 476 271 472 128 q 346 278 411 278 q 232 271 281 278 q 204 113 204 157 q 253 17 204 44 l 247 -7 q 126 0 215 0 q -14 -11 38 0 l -19 25 q 72 47 14 38 l 253 681 q 146 703 192 690 l 150 739 m 243 336 q 363 328 297 328 q 476 336 429 328 q 465 668 476 593 q 395 671 418 671 q 325 668 372 671 l 243 336 m 560 1010 q 590 1011 574 1011 q 619 1008 606 1011 q 641 969 629 997 q 654 926 653 940 l 392 775 l 376 800 q 477 893 428 835 q 560 1010 526 951 z "},"â":{"ha":743,"x_min":-19,"x_max":699,"o":"m 150 739 q 414 724 281 724 q 676 739 547 724 l 682 703 q 596 678 640 686 q 581 361 581 564 q 596 44 581 158 q 699 24 624 40 l 693 -11 q 522 0 626 0 q 363 -11 418 0 l 357 25 q 464 47 404 40 q 476 271 472 128 q 346 278 411 278 q 232 271 281 278 q 204 113 204 157 q 253 17 204 44 l 247 -7 q 126 0 215 0 q -14 -11 38 0 l -19 25 q 72 47 14 38 l 253 681 q 146 703 192 690 l 150 739 m 243 336 q 363 328 297 328 q 476 336 429 328 q 465 668 476 593 q 395 671 418 671 q 325 668 372 671 l 243 336 m 422 894 l 236 769 l 218 793 q 408 1026 335 892 l 436 1026 q 626 793 510 892 l 608 769 l 422 894 z "},"ã":{"ha":743,"x_min":-19,"x_max":699,"o":"m 150 739 q 414 724 281 724 q 676 739 547 724 l 682 703 q 596 678 640 686 q 581 361 581 564 q 596 44 581 158 q 699 24 624 40 l 693 -11 q 522 0 626 0 q 363 -11 418 0 l 357 25 q 464 47 404 40 q 476 271 472 128 q 346 278 411 278 q 232 271 281 278 q 204 113 204 157 q 253 17 204 44 l 247 -7 q 126 0 215 0 q -14 -11 38 0 l -19 25 q 72 47 14 38 l 253 681 q 146 703 192 690 l 150 739 m 243 336 q 363 328 297 328 q 476 336 429 328 q 465 668 476 593 q 395 671 418 671 q 325 668 372 671 l 243 336 m 383 967 q 538 924 465 924 q 639 957 611 924 l 664 942 q 519 828 586 857 q 419 849 490 828 q 318 871 347 871 q 231 838 258 871 l 206 853 q 383 967 283 938 z "},"ä":{"ha":743,"x_min":-19,"x_max":699,"o":"m 150 739 q 414 724 281 724 q 676 739 547 724 l 682 703 q 596 678 640 686 q 581 361 581 564 q 596 44 581 158 q 699 24 624 40 l 693 -11 q 522 0 626 0 q 363 -11 418 0 l 357 25 q 464 47 404 40 q 476 271 472 128 q 346 278 411 278 q 232 271 281 278 q 204 113 204 157 q 253 17 204 44 l 247 -7 q 126 0 215 0 q -14 -11 38 0 l -19 25 q 72 47 14 38 l 253 681 q 146 703 192 690 l 150 739 m 243 336 q 363 328 297 328 q 476 336 429 328 q 465 668 476 593 q 395 671 418 671 q 325 668 372 671 l 243 336 m 360 918 q 326 872 350 900 q 285 833 301 844 q 244 872 268 844 q 210 918 219 900 q 242 956 218 935 q 285 988 265 978 q 326 955 303 976 q 360 918 350 933 m 617 918 q 583 872 607 900 q 542 833 558 844 q 501 872 525 844 q 467 918 476 900 q 499 956 475 935 q 542 988 522 978 q 583 955 560 976 q 617 918 607 933 z "},"å":{"ha":714,"x_min":-19,"x_max":699,"o":"m 150 739 q 414 724 281 724 q 676 739 547 724 l 682 703 q 596 678 640 686 q 581 361 581 564 q 596 44 581 158 q 699 24 624 40 l 693 -11 q 522 0 626 0 q 363 -11 418 0 l 357 25 q 464 47 404 40 q 476 271 472 128 q 346 278 411 278 q 232 271 281 278 q 204 113 204 157 q 253 17 204 44 l 247 -7 q 126 0 215 0 q -14 -11 38 0 l -19 25 q 72 47 14 38 l 253 681 q 146 703 192 690 l 150 739 m 243 336 q 363 328 297 328 q 476 336 429 328 q 465 668 476 593 q 395 671 418 671 q 325 668 372 671 l 243 336 m 432 775 q 336 801 375 775 q 297 880 297 828 q 338 973 297 932 q 439 1026 379 1014 q 565 924 565 1026 q 528 831 565 869 q 432 775 492 793 m 500 896 q 500 915 500 896 q 478 956 500 933 q 424 978 457 978 q 378 965 392 978 q 363 906 363 942 q 385 847 363 869 q 438 824 407 824 q 485 836 469 824 q 500 896 500 858 z "},"æ":{"ha":879,"x_min":-22,"x_max":869,"o":"m 190 739 q 507 724 321 724 q 863 740 693 724 l 869 713 q 807 543 814 654 l 772 543 q 763 654 763 589 q 648 678 714 678 q 557 672 582 678 q 528 414 539 625 q 624 404 576 404 q 732 453 708 404 l 761 449 q 749 367 749 407 q 758 268 749 326 l 725 263 q 703 349 710 304 q 617 354 647 354 q 528 347 586 354 l 528 306 q 559 138 528 196 q 679 81 590 81 q 846 158 768 81 l 861 144 q 656 -17 767 22 q 421 261 421 -17 q 421 278 421 269 l 422 347 q 336 354 383 354 q 260 347 289 354 l 247 303 q 206 97 206 153 q 247 17 206 40 l 242 -7 q 122 0 210 0 q -17 -11 35 0 l -22 25 q 69 47 11 38 l 289 681 q 186 703 224 692 l 190 739 m 281 411 q 351 404 307 404 q 424 413 396 404 q 431 533 426 468 q 436 625 436 599 q 433 669 436 651 q 397 674 417 674 q 360 669 378 674 l 281 411 z "},"ç":{"ha":538,"x_min":63,"x_max":613,"o":"m 374 81 q 275 103 315 81 q 182 376 182 158 q 236 615 182 517 q 356 654 283 654 q 481 628 428 654 q 492 531 481 578 l 526 531 q 561 679 535 617 q 611 689 585 689 l 613 719 q 383 740 485 740 q 153 572 243 700 q 63 299 63 444 q 139 69 63 154 q 350 -17 215 -17 q 574 146 481 28 l 554 165 q 374 81 469 81 m 325 -247 q 361 -240 350 -247 q 374 -197 374 -222 q 258 -135 374 -135 l 250 -129 l 303 19 l 343 22 l 310 -64 l 315 -68 q 419 -97 379 -68 q 458 -185 458 -126 q 402 -253 439 -222 q 325 -299 365 -285 q 203 -269 264 -299 q 225 -215 217 -243 l 231 -212 q 325 -247 275 -247 z "},"è":{"ha":622,"x_min":63,"x_max":613,"o":"m 182 343 q 228 150 186 219 q 369 81 269 81 q 554 165 469 81 l 574 146 q 350 -17 481 28 q 139 69 215 -17 q 63 299 63 154 q 153 572 63 444 q 383 740 243 700 q 613 719 485 740 l 611 689 q 561 679 585 689 q 526 531 535 617 l 492 531 q 481 628 481 578 q 356 654 428 654 q 236 615 283 654 q 182 410 189 529 q 307 400 240 400 q 446 449 422 400 l 475 444 q 463 363 463 403 q 472 264 463 322 l 439 258 q 417 344 424 300 q 306 350 361 350 q 182 343 251 350 m 200 1008 q 230 1011 214 1011 q 260 1010 246 1011 q 342 893 293 951 q 443 800 392 835 l 428 775 l 165 926 q 178 969 167 940 q 200 1008 190 997 z "},"é":{"ha":622,"x_min":63,"x_max":613,"o":"m 482 1010 q 512 1011 496 1011 q 542 1008 528 1011 q 563 969 551 997 q 576 926 575 940 l 314 775 l 299 800 q 399 893 350 835 q 482 1010 449 951 m 182 343 q 228 150 186 219 q 369 81 269 81 q 554 165 469 81 l 574 146 q 350 -17 481 28 q 139 69 215 -17 q 63 299 63 154 q 153 572 63 444 q 383 740 243 700 q 613 719 485 740 l 611 689 q 561 679 585 689 q 526 531 535 617 l 492 531 q 481 628 481 578 q 356 654 428 654 q 236 615 283 654 q 182 410 189 529 q 307 400 240 400 q 446 449 422 400 l 475 444 q 463 363 463 403 q 472 264 463 322 l 439 258 q 417 344 424 300 q 306 350 361 350 q 182 343 251 350 z "},"ê":{"ha":622,"x_min":63,"x_max":613,"o":"m 182 343 q 228 150 186 219 q 369 81 269 81 q 554 165 469 81 l 574 146 q 350 -17 481 28 q 139 69 215 -17 q 63 299 63 154 q 153 572 63 444 q 383 740 243 700 q 613 719 485 740 l 611 689 q 561 679 585 689 q 526 531 535 617 l 492 531 q 481 628 481 578 q 356 654 428 654 q 236 615 283 654 q 182 410 189 529 q 307 400 240 400 q 446 449 422 400 l 475 444 q 463 363 463 403 q 472 264 463 322 l 439 258 q 417 344 424 300 q 306 350 361 350 q 182 343 251 350 m 372 894 l 186 769 l 168 793 q 358 1026 285 892 l 386 1026 q 576 793 460 892 l 558 769 l 372 894 z "},"ë":{"ha":622,"x_min":63,"x_max":613,"o":"m 182 343 q 228 150 186 219 q 369 81 269 81 q 554 165 469 81 l 574 146 q 350 -17 481 28 q 139 69 215 -17 q 63 299 63 154 q 153 572 63 444 q 383 740 243 700 q 613 719 485 740 l 611 689 q 561 679 585 689 q 526 531 535 617 l 492 531 q 481 628 481 578 q 356 654 428 654 q 236 615 283 654 q 182 410 189 529 q 307 400 240 400 q 446 449 422 400 l 475 444 q 463 363 463 403 q 472 264 463 322 l 439 258 q 417 344 424 300 q 306 350 361 350 q 182 343 251 350 m 319 918 q 285 872 310 900 q 244 833 261 844 q 203 872 228 844 q 169 918 179 900 q 201 956 178 935 q 244 988 225 978 q 286 955 263 976 q 319 918 310 933 m 576 918 q 542 872 567 900 q 501 833 518 844 q 460 872 485 844 q 426 918 436 900 q 458 956 435 935 q 501 988 482 978 q 543 955 519 976 q 576 918 567 933 z "},"ì":{"ha":429,"x_min":42,"x_max":394,"o":"m 278 678 q 267 371 267 603 q 279 46 267 139 q 394 25 342 39 l 390 -10 q 228 0 318 0 q 68 -11 139 0 l 63 25 q 150 46 101 38 q 163 329 163 146 l 163 394 q 149 678 163 578 q 61 699 100 686 l 67 735 q 227 724 138 724 q 389 733 317 724 l 393 699 q 278 678 340 685 m 76 1008 q 106 1011 90 1011 q 136 1010 122 1011 q 219 893 169 951 q 319 800 268 835 l 304 775 l 42 926 q 55 969 43 940 q 76 1008 67 997 z "},"í":{"ha":429,"x_min":61,"x_max":403,"o":"m 308 1010 q 338 1011 322 1011 q 368 1008 354 1011 q 390 969 378 997 q 403 926 401 940 l 140 775 l 125 800 q 226 893 176 835 q 308 1010 275 951 m 278 678 q 267 371 267 603 q 279 46 267 139 q 394 25 342 39 l 390 -10 q 228 0 318 0 q 68 -11 139 0 l 63 25 q 150 46 101 38 q 163 329 163 146 l 163 394 q 149 678 163 578 q 61 699 100 686 l 67 735 q 227 724 138 724 q 389 733 317 724 l 393 699 q 278 678 340 685 z "},"î":{"ha":429,"x_min":19,"x_max":428,"o":"m 278 678 q 267 371 267 603 q 279 46 267 139 q 394 25 342 39 l 390 -10 q 228 0 318 0 q 68 -11 139 0 l 63 25 q 150 46 101 38 q 163 329 163 146 l 163 394 q 149 678 163 578 q 61 699 100 686 l 67 735 q 227 724 138 724 q 389 733 317 724 l 393 699 q 278 678 340 685 m 224 894 l 38 769 l 19 793 q 210 1026 136 892 l 238 1026 q 428 793 311 892 l 410 769 l 224 894 z "},"ï":{"ha":429,"x_min":31,"x_max":418,"o":"m 181 918 q 147 872 171 900 q 106 833 122 844 q 65 872 89 844 q 31 918 40 900 q 63 956 39 935 q 106 988 86 978 q 147 955 124 976 q 181 918 171 933 m 418 918 q 384 872 408 900 q 343 833 360 844 q 302 872 326 844 q 268 918 278 900 q 300 956 276 935 q 343 988 324 978 q 385 955 361 976 q 418 918 408 933 m 278 678 q 267 371 267 603 q 279 46 267 139 q 394 25 342 39 l 390 -10 q 228 0 318 0 q 68 -11 139 0 l 63 25 q 150 46 101 38 q 163 329 163 146 l 163 394 q 149 678 163 578 q 61 699 100 686 l 67 735 q 227 724 138 724 q 389 733 317 724 l 393 699 q 278 678 340 685 z "},"ð":{"ha":749,"x_min":40,"x_max":699,"o":"m 50 721 l 369 731 q 613 656 528 731 q 699 431 699 581 q 605 153 699 282 q 372 -17 511 24 q 278 -3 336 -17 q 183 25 221 10 q 156 -26 168 7 l 126 -19 q 153 353 153 110 q 44 342 110 351 l 40 347 q 50 392 49 375 l 153 396 q 140 668 151 581 q 50 686 93 686 l 50 721 m 528 582 q 458 656 503 629 q 359 682 413 682 q 267 667 306 682 q 257 401 257 582 l 288 403 q 404 410 376 407 q 417 367 410 382 l 417 360 l 257 358 q 263 104 257 179 q 405 72 332 72 q 521 110 478 72 q 574 356 574 210 q 528 582 574 492 z "},"ñ":{"ha":865,"x_min":58,"x_max":813,"o":"m 383 967 q 538 924 465 924 q 639 957 611 924 l 664 942 q 519 828 586 857 q 419 849 490 828 q 318 871 347 871 q 231 838 258 871 l 206 853 q 383 967 283 938 m 394 -10 q 233 0 322 0 q 72 -11 143 0 l 67 25 q 150 46 111 39 q 163 329 163 154 l 163 394 q 149 681 163 581 q 58 703 111 685 l 63 739 q 228 724 142 724 q 353 733 315 724 l 356 710 q 318 678 318 700 q 351 608 318 661 q 414 504 383 554 q 631 146 506 358 l 635 149 l 635 318 q 615 598 635 504 q 549 707 596 692 l 551 731 q 660 724 588 724 q 808 739 732 724 l 813 703 q 717 681 756 685 q 703 394 703 569 l 703 329 q 717 43 703 118 q 810 21 775 33 l 806 -15 q 675 0 736 0 q 581 -6 614 0 q 538 97 581 25 q 461 225 496 169 q 240 594 349 407 l 235 592 l 235 406 q 276 46 235 129 q 399 25 339 39 l 394 -10 z "},"ò":{"ha":731,"x_min":58,"x_max":672,"o":"m 365 -17 q 143 70 228 -17 q 58 303 58 157 q 147 576 58 449 q 379 740 236 704 q 597 659 522 740 q 672 428 672 578 q 591 157 672 278 q 365 -17 510 36 m 342 656 q 233 621 279 656 q 176 376 176 524 q 271 117 176 207 q 389 68 321 68 q 499 104 457 68 q 554 342 554 201 q 504 569 554 482 q 342 656 454 656 m 192 1008 q 222 1011 206 1011 q 251 1010 238 1011 q 334 893 285 951 q 435 800 383 835 l 419 775 l 157 926 q 170 969 158 940 q 192 1008 182 997 z "},"ó":{"ha":731,"x_min":58,"x_max":672,"o":"m 365 -17 q 143 70 228 -17 q 58 303 58 157 q 147 576 58 449 q 379 740 236 704 q 597 659 522 740 q 672 428 672 578 q 591 157 672 278 q 365 -17 510 36 m 342 656 q 233 621 279 656 q 176 376 176 524 q 271 117 176 207 q 389 68 321 68 q 499 104 457 68 q 554 342 554 201 q 504 569 554 482 q 342 656 454 656 m 488 1010 q 517 1011 501 1011 q 547 1008 533 1011 q 569 969 557 997 q 582 926 581 940 l 319 775 l 304 800 q 405 893 356 835 q 488 1010 454 951 z "},"ô":{"ha":731,"x_min":58,"x_max":672,"o":"m 365 -17 q 143 70 228 -17 q 58 303 58 157 q 147 576 58 449 q 379 740 236 704 q 597 659 522 740 q 672 428 672 578 q 591 157 672 278 q 365 -17 510 36 m 342 656 q 233 621 279 656 q 176 376 176 524 q 271 117 176 207 q 389 68 321 68 q 499 104 457 68 q 554 342 554 201 q 504 569 554 482 q 342 656 454 656 m 369 894 l 183 769 l 165 793 q 356 1026 282 892 l 383 1026 q 574 793 457 892 l 556 769 l 369 894 z "},"õ":{"ha":731,"x_min":58,"x_max":672,"o":"m 365 -17 q 143 70 228 -17 q 58 303 58 157 q 147 576 58 449 q 379 740 236 704 q 597 659 522 740 q 672 428 672 578 q 591 157 672 278 q 365 -17 510 36 m 342 656 q 233 621 279 656 q 176 376 176 524 q 271 117 176 207 q 389 68 321 68 q 499 104 457 68 q 554 342 554 201 q 504 569 554 482 q 342 656 454 656 m 328 967 q 483 924 410 924 q 583 957 556 924 l 608 942 q 464 828 531 857 q 363 849 435 828 q 263 871 292 871 q 175 838 203 871 l 150 853 q 328 967 228 938 z "},"ö":{"ha":731,"x_min":58,"x_max":672,"o":"m 365 -17 q 143 70 228 -17 q 58 303 58 157 q 147 576 58 449 q 379 740 236 704 q 597 659 522 740 q 672 428 672 578 q 591 157 672 278 q 365 -17 510 36 m 342 656 q 233 621 279 656 q 176 376 176 524 q 271 117 176 207 q 389 68 321 68 q 499 104 457 68 q 554 342 554 201 q 504 569 554 482 q 342 656 454 656 m 317 918 q 283 872 307 900 q 242 833 258 844 q 201 872 225 844 q 167 918 176 900 q 199 956 175 935 q 242 988 222 978 q 283 955 260 976 q 317 918 307 933 m 574 918 q 540 872 564 900 q 499 833 515 844 q 458 872 482 844 q 424 918 433 900 q 456 956 432 935 q 499 988 479 978 q 540 955 517 976 q 574 918 564 933 z "},"÷":{"ha":764,"x_min":74,"x_max":689,"o":"m 422 578 q 432 568 422 578 q 442 535 442 558 q 422 491 442 511 q 381 471 403 471 q 338 491 358 471 q 318 535 318 511 q 338 578 318 558 q 381 597 358 597 q 422 578 403 597 m 422 199 q 432 189 422 199 q 442 156 442 179 q 422 112 442 132 q 381 92 403 92 q 338 112 358 92 q 318 155 318 132 q 338 198 318 178 q 381 218 358 218 q 422 199 403 218 m 86 389 q 474 376 322 376 q 681 381 626 376 l 689 372 l 676 308 l 85 308 l 74 318 l 86 389 z "},"ø":{"ha":731,"x_min":58,"x_max":672,"o":"m 186 -121 l 179 -121 q 143 -87 157 -108 q 263 199 210 61 l 394 546 q 503 853 450 690 q 556 863 535 856 l 561 858 q 446 564 543 817 l 186 -121 m 365 -17 q 143 70 228 -17 q 58 303 58 157 q 147 576 58 449 q 379 740 236 704 q 597 659 522 740 q 672 428 672 578 q 591 157 672 278 q 365 -17 510 36 m 342 656 q 233 621 279 656 q 176 376 176 524 q 271 117 176 207 q 389 68 321 68 q 499 104 457 68 q 554 342 554 201 q 504 569 554 482 q 342 656 454 656 z "},"ù":{"ha":803,"x_min":42,"x_max":760,"o":"m 640 394 l 640 329 q 654 44 640 139 q 760 25 718 36 l 756 -10 q 616 0 688 0 q 518 -4 544 0 l 513 14 q 529 93 525 28 q 363 -17 457 18 q 124 268 124 -17 q 133 468 124 331 q 143 629 143 606 q 135 675 143 653 l 135 676 q 42 697 76 686 l 47 735 q 193 724 128 724 q 300 731 258 724 l 306 707 q 247 611 256 681 q 231 338 231 478 q 263 138 231 197 q 385 79 296 79 q 531 131 475 79 q 536 393 536 242 q 525 678 536 544 q 410 699 463 685 l 414 733 q 576 724 486 724 q 736 735 665 724 l 742 699 q 654 678 703 686 q 640 394 640 585 m 218 1008 q 248 1011 232 1011 q 278 1010 264 1011 q 360 893 311 951 q 461 800 410 835 l 446 775 l 183 926 q 197 969 185 940 q 218 1008 208 997 z "},"ú":{"ha":808,"x_min":47,"x_max":765,"o":"m 549 1010 q 578 1011 563 1011 q 608 1008 594 1011 q 630 969 618 997 q 643 926 642 940 l 381 775 l 365 800 q 466 893 417 835 q 549 1010 515 951 m 660 678 q 646 394 646 585 l 646 329 q 660 44 646 139 q 765 25 724 36 l 761 -10 q 622 0 693 0 q 524 -4 550 0 l 518 14 q 535 93 531 28 q 368 -17 463 18 q 129 268 129 -17 q 139 468 129 331 q 149 629 149 606 q 140 675 149 653 l 140 676 q 47 697 82 686 l 53 735 q 199 724 133 724 q 306 731 264 724 l 311 707 q 253 611 261 681 q 236 338 236 478 q 269 138 236 197 q 391 79 301 79 q 536 131 481 79 q 542 393 542 242 q 531 678 542 544 q 415 699 468 685 l 419 733 q 581 724 492 724 q 742 735 671 724 l 747 699 q 660 678 708 686 z "},"û":{"ha":803,"x_min":42,"x_max":760,"o":"m 640 394 l 640 329 q 654 44 640 139 q 760 25 718 36 l 756 -10 q 616 0 688 0 q 518 -4 544 0 l 513 14 q 529 93 525 28 q 363 -17 457 18 q 124 268 124 -17 q 133 468 124 331 q 143 629 143 606 q 135 675 143 653 l 135 676 q 42 697 76 686 l 47 735 q 193 724 128 724 q 300 731 258 724 l 306 707 q 247 611 256 681 q 231 338 231 478 q 263 138 231 197 q 385 79 296 79 q 531 131 475 79 q 536 393 536 242 q 525 678 536 544 q 410 699 463 685 l 414 733 q 576 724 486 724 q 736 735 665 724 l 742 699 q 654 678 703 686 q 640 394 640 585 m 394 894 l 208 769 l 190 793 q 381 1026 307 892 l 408 1026 q 599 793 482 892 l 581 769 l 394 894 z "},"ü":{"ha":803,"x_min":42,"x_max":760,"o":"m 640 394 l 640 329 q 654 44 640 139 q 760 25 718 36 l 756 -10 q 616 0 688 0 q 518 -4 544 0 l 513 14 q 529 93 525 28 q 363 -17 457 18 q 124 268 124 -17 q 133 468 124 331 q 143 629 143 606 q 135 675 143 653 l 135 676 q 42 697 76 686 l 47 735 q 193 724 128 724 q 300 731 258 724 l 306 707 q 247 611 256 681 q 231 338 231 478 q 263 138 231 197 q 385 79 296 79 q 531 131 475 79 q 536 393 536 242 q 525 678 536 544 q 410 699 463 685 l 414 733 q 576 724 486 724 q 736 735 665 724 l 742 699 q 654 678 703 686 q 640 394 640 585 m 342 918 q 308 872 332 900 q 267 833 283 844 q 226 872 250 844 q 192 918 201 900 q 224 956 200 935 q 267 988 247 978 q 308 955 285 976 q 342 918 332 933 m 599 918 q 565 872 589 900 q 524 833 540 844 q 483 872 507 844 q 449 918 458 900 q 481 956 457 935 q 524 988 504 978 q 565 955 542 976 q 599 918 589 933 z "},"ý":{"ha":753,"x_min":-4,"x_max":714,"o":"m 483 676 q 446 707 483 699 l 451 731 q 560 724 493 724 q 708 735 628 724 l 714 699 q 622 678 678 686 l 392 331 q 406 46 392 150 q 519 25 467 39 l 515 -10 q 349 0 443 0 q 185 -11 256 0 l 179 25 q 274 46 206 33 q 286 272 286 121 l 286 301 q 82 679 125 626 q -4 699 43 683 l 1 735 q 161 724 57 724 q 332 735 265 724 l 338 700 q 228 679 274 685 q 360 375 275 535 q 483 676 483 615 m 540 1010 q 570 1011 554 1011 q 600 1008 586 1011 q 622 969 610 997 q 635 926 633 940 l 372 775 l 357 800 q 458 893 408 835 q 540 1010 507 951 z "},"þ":{"ha":632,"x_min":61,"x_max":626,"o":"m 268 528 q 267 311 267 483 q 279 46 267 139 q 394 25 342 39 l 390 -10 q 228 0 318 0 q 68 -11 139 0 l 63 25 q 150 46 101 38 q 163 329 163 146 l 163 394 q 149 678 163 578 q 61 699 100 686 l 67 735 q 227 724 138 724 q 389 733 317 724 l 393 699 q 278 678 340 685 q 271 589 274 651 q 375 592 351 592 q 626 410 626 592 q 537 246 626 308 q 333 183 447 183 q 310 185 317 183 l 315 231 l 328 231 q 456 268 414 231 q 499 386 499 306 q 465 505 499 467 q 356 543 431 543 q 268 528 308 543 z "},"ÿ":{"ha":753,"x_min":-4,"x_max":714,"o":"m 483 676 q 446 707 483 699 l 451 731 q 560 724 493 724 q 708 735 628 724 l 714 699 q 622 678 678 686 l 392 331 q 406 46 392 150 q 519 25 467 39 l 515 -10 q 349 0 443 0 q 185 -11 256 0 l 179 25 q 274 46 206 33 q 286 272 286 121 l 286 301 q 82 679 125 626 q -4 699 43 683 l 1 735 q 161 724 57 724 q 332 735 265 724 l 338 700 q 228 679 274 685 q 360 375 275 535 q 483 676 483 615 m 307 918 q 273 872 297 900 q 232 833 249 844 q 191 872 215 844 q 157 918 167 900 q 189 956 165 935 q 232 988 213 978 q 274 955 250 976 q 307 918 297 933 m 564 918 q 530 872 554 900 q 489 833 506 844 q 448 872 472 844 q 414 918 424 900 q 446 956 422 935 q 489 988 469 978 q 531 955 507 976 q 564 918 554 933 z "},"ħ":{"ha":858,"x_min":26,"x_max":838,"o":"m 668 542 l 194 526 q 31 514 94 524 l 26 519 q 36 564 35 547 l 703 588 q 825 594 800 592 q 838 551 831 567 l 838 544 l 668 542 m 499 735 q 659 724 569 724 q 821 733 749 724 l 825 699 q 710 678 772 685 q 696 394 696 592 l 696 329 q 710 46 696 129 q 825 25 772 39 l 821 -10 q 659 0 749 0 q 499 -11 569 0 l 493 25 q 581 46 532 38 q 593 360 592 203 q 429 368 504 368 q 267 360 354 368 q 279 46 267 131 q 394 25 342 39 l 390 -10 q 228 0 318 0 q 68 -11 139 0 l 63 25 q 150 46 101 38 q 163 329 163 146 l 163 394 q 149 678 163 578 q 61 699 100 686 l 67 735 q 227 724 138 724 q 389 733 317 724 l 393 699 q 278 678 340 685 q 267 429 267 597 q 434 418 344 418 q 593 428 524 418 q 581 678 592 546 q 493 699 532 686 l 499 735 z "},"Ĩ":{"ha":468,"x_min":6,"x_max":464,"o":"m 303 856 q 288 467 288 751 q 306 49 288 182 q 458 22 379 42 l 454 -11 q 231 0 351 0 q 38 -11 111 0 l 32 24 q 165 53 94 43 q 181 411 181 167 l 181 493 q 163 851 181 718 q 29 881 92 861 l 35 915 q 228 904 108 904 q 451 915 349 904 l 456 882 q 303 856 376 863 m 183 1172 q 338 1129 265 1129 q 439 1163 411 1129 l 464 1147 q 319 1033 386 1063 q 219 1055 290 1033 q 118 1076 147 1076 q 31 1043 58 1076 l 6 1058 q 183 1172 83 1143 z "},"ĩ":{"ha":429,"x_min":33,"x_max":433,"o":"m 333 924 q 410 957 382 924 l 433 942 q 307 828 381 864 q 219 849 285 828 q 132 871 154 871 q 58 838 83 871 l 33 853 q 189 967 97 935 q 333 924 256 924 m 278 678 q 267 371 267 603 q 279 46 267 139 q 394 25 342 39 l 390 -10 q 228 0 318 0 q 68 -11 139 0 l 63 25 q 150 46 101 38 q 163 329 163 146 l 163 394 q 149 678 163 578 q 61 699 100 686 l 67 735 q 227 724 138 724 q 389 733 317 724 l 393 699 q 278 678 340 685 z "},"ı":{"ha":429,"x_min":61,"x_max":394,"o":"m 278 678 q 267 371 267 603 q 279 46 267 139 q 394 25 342 39 l 390 -10 q 228 0 318 0 q 68 -11 139 0 l 63 25 q 150 46 101 38 q 163 329 163 146 l 163 394 q 149 678 163 578 q 61 699 100 686 l 67 735 q 227 724 138 724 q 389 733 317 724 l 393 699 q 278 678 340 685 z "},"Ĳ":{"ha":961,"x_min":29,"x_max":907,"o":"m 485 915 q 708 904 588 904 q 901 915 828 904 l 907 881 q 774 851 844 861 q 756 493 756 718 l 756 411 q 767 46 756 154 q 481 -250 689 -129 l 457 -224 q 606 -33 563 -135 q 649 214 649 69 l 649 493 q 633 856 649 751 q 481 882 560 863 l 485 915 m 303 856 q 288 467 288 751 q 306 49 288 182 q 458 22 379 42 l 454 -11 q 231 0 351 0 q 38 -11 111 0 l 32 24 q 165 53 94 43 q 181 411 181 167 l 181 493 q 163 851 181 718 q 29 881 92 861 l 35 915 q 228 904 108 904 q 451 915 349 904 l 456 882 q 303 856 376 863 z "},"ĳ":{"ha":840,"x_min":61,"x_max":797,"o":"m 278 678 q 267 371 267 603 q 279 46 267 139 q 394 25 342 39 l 390 -10 q 228 0 318 0 q 68 -11 139 0 l 63 25 q 150 46 101 38 q 163 329 163 146 l 163 394 q 149 678 163 578 q 61 699 100 686 l 67 735 q 227 724 138 724 q 389 733 317 724 l 393 699 q 278 678 340 685 m 592 171 l 592 393 q 581 678 592 603 q 465 699 518 685 l 469 733 q 631 724 542 724 q 792 735 721 724 l 797 699 q 710 678 758 686 q 696 394 696 578 l 696 329 q 708 46 696 146 q 611 -93 675 -28 q 469 -203 547 -158 l 446 -176 q 560 -31 528 -114 q 592 171 592 51 z "},"Ĵ":{"ha":468,"x_min":-146,"x_max":465,"o":"m 451 993 l 228 1097 l 4 993 l -10 1019 q 214 1229 118 1100 l 242 1229 q 465 1019 338 1100 l 451 993 m 288 493 l 288 411 q 299 46 288 154 q -44 -251 206 -142 l -61 -222 q 126 -35 71 -132 q 181 214 181 61 l 181 493 q 168 828 181 703 q -42 783 4 828 q -51 722 -51 764 q -37 665 -51 681 l -39 656 q -108 597 -74 635 q -135 611 -125 599 q -146 640 -146 624 q -64 803 -146 708 q 89 922 18 897 q 189 913 100 922 q 328 904 278 904 q 422 913 378 904 l 428 878 q 304 840 374 857 q 288 493 288 690 z "},"ĵ":{"ha":411,"x_min":1,"x_max":410,"o":"m 163 171 l 163 393 q 151 678 163 603 q 36 699 89 685 l 40 733 q 202 724 113 724 q 363 735 292 724 l 368 699 q 281 678 329 686 q 267 394 267 578 l 267 329 q 279 46 267 146 q 182 -93 246 -28 q 40 -203 118 -158 l 17 -176 q 131 -31 99 -114 q 163 171 163 51 m 206 894 l 19 769 l 1 793 q 192 1026 118 892 l 219 1026 q 410 793 293 892 l 392 769 l 206 894 z "},"ķ":{"ha":729,"x_min":61,"x_max":735,"o":"m 267 393 l 267 336 q 451 552 408 486 q 493 655 493 618 q 472 707 493 692 l 479 731 q 567 724 510 724 q 708 735 625 724 l 714 699 q 621 676 682 688 q 460 442 608 582 l 643 47 q 735 25 701 38 l 729 -11 q 595 0 678 0 q 479 -7 513 0 l 472 17 q 492 75 492 36 q 382 378 492 168 q 267 282 354 354 q 279 46 271 113 q 394 25 342 39 l 390 -10 q 228 0 318 0 q 68 -11 139 0 l 63 25 q 150 46 101 38 q 163 329 163 146 l 163 394 q 149 678 163 578 q 61 699 100 686 l 67 735 q 227 724 138 724 q 389 733 317 724 l 393 699 q 278 678 340 685 q 267 393 267 603 m 471 -117 q 324 -299 464 -226 l 310 -281 q 376 -186 368 -237 q 321 -117 340 -153 q 353 -78 329 -100 q 396 -47 376 -57 q 438 -80 414 -58 q 471 -117 461 -101 z "},"ĸ":{"ha":736,"x_min":63,"x_max":746,"o":"m 390 -10 q 231 0 313 0 q 68 -11 150 0 l 63 25 q 149 46 85 32 q 163 293 163 140 l 163 421 q 150 669 163 549 q 68 682 113 682 l 68 714 q 276 744 169 719 l 286 738 q 267 421 267 613 l 267 379 l 274 378 q 412 578 317 465 q 585 744 507 692 q 714 719 646 744 l 714 699 q 649 517 654 621 l 615 517 q 613 600 615 567 q 560 615 589 615 q 390 474 506 615 l 540 244 q 663 56 650 72 q 746 44 699 44 l 746 8 q 553 -21 664 6 l 540 -15 q 446 181 540 26 l 322 381 q 267 286 306 357 q 278 47 267 139 q 394 25 346 40 l 390 -10 z "},"Ŀ":{"ha":633,"x_min":29,"x_max":699,"o":"m 303 856 q 285 467 285 733 q 296 76 285 201 q 385 74 343 74 q 594 118 549 74 q 604 179 604 138 q 590 236 604 221 l 592 246 q 661 304 626 267 q 688 290 678 303 q 699 261 699 278 q 617 99 699 193 q 464 -21 535 4 q 206 19 344 -17 q 174 -44 186 -6 l 144 -36 q 178 424 174 104 l 178 493 q 163 851 178 736 q 29 881 92 861 l 35 915 q 228 904 108 904 q 451 915 349 904 l 456 882 q 303 856 372 863 m 589 492 q 555 446 579 474 q 514 407 531 418 q 473 446 497 418 q 439 492 449 474 q 471 530 447 508 q 514 561 494 551 q 556 528 532 550 q 589 492 579 507 z "},"ŀ":{"ha":565,"x_min":60,"x_max":575,"o":"m 568 -15 q 323 0 478 0 q 64 -14 168 0 l 60 21 q 149 46 99 36 q 163 329 163 129 l 163 394 q 149 678 163 567 q 61 699 103 685 l 67 735 q 233 724 138 724 q 397 735 329 724 l 401 700 q 278 678 339 685 q 267 369 267 603 q 278 57 267 135 q 372 51 311 51 q 482 75 433 51 q 501 186 501 122 l 536 186 q 575 13 542 79 l 568 -15 m 522 414 q 488 368 513 396 q 447 329 464 340 q 406 368 431 340 q 372 414 382 396 q 404 452 381 431 q 447 483 428 474 q 489 451 465 472 q 522 414 513 429 z "},"Ł":{"ha":633,"x_min":29,"x_max":699,"o":"m 508 592 l 189 433 q 46 351 100 390 l 40 356 q 31 400 33 393 l 374 575 q 476 631 453 617 q 506 597 488 614 l 508 592 m 303 856 q 285 467 285 733 q 296 76 285 201 q 385 74 343 74 q 594 118 549 74 q 604 179 604 138 q 590 236 604 221 l 592 246 q 661 304 626 267 q 688 290 678 303 q 699 261 699 278 q 617 99 699 193 q 464 -21 535 4 q 206 19 344 -17 q 174 -44 186 -6 l 144 -36 q 178 424 174 104 l 178 493 q 163 851 178 736 q 29 881 92 861 l 35 915 q 228 904 108 904 q 451 915 349 904 l 456 882 q 303 856 372 863 z "},"ł":{"ha":565,"x_min":31,"x_max":575,"o":"m 568 -15 q 323 0 478 0 q 64 -14 168 0 l 60 21 q 149 46 99 36 q 163 329 163 129 l 163 331 q 46 263 93 296 l 40 267 q 31 311 33 304 l 163 378 l 163 394 q 149 678 163 567 q 61 699 103 685 l 67 735 q 233 724 138 724 q 397 735 329 724 l 401 700 q 278 678 339 685 q 267 431 269 626 l 314 456 q 417 511 393 497 q 446 478 428 494 l 449 472 l 267 382 q 278 57 267 132 q 372 51 311 51 q 482 75 433 51 q 501 186 501 122 l 536 186 q 575 13 542 79 l 568 -15 z "},"Ń":{"ha":981,"x_min":-150,"x_max":956,"o":"m 769 1107 l 483 1003 l 472 1031 q 690 1206 586 1081 q 749 1193 721 1203 q 763 1151 756 1181 q 769 1107 771 1121 m 726 411 q 706 759 726 649 q 626 890 685 869 l 632 910 q 772 904 675 904 q 951 915 869 904 l 956 883 q 818 856 857 860 q 800 493 800 719 l 800 411 q 818 49 800 151 q 951 24 889 40 l 946 -11 q 798 0 872 0 q 678 -4 724 0 q 588 200 678 42 q 260 729 497 358 l 254 726 l 254 493 q 306 49 254 153 q 457 22 382 42 l 454 -11 q 231 0 351 0 q 38 -11 111 0 l 32 24 q 165 53 94 43 q 181 411 181 167 l 181 493 q 164 828 181 689 q -46 783 0 828 q -56 722 -56 764 q -42 665 -56 681 l -43 656 q -112 597 -78 635 q -140 611 -129 599 q -150 640 -150 624 q -68 803 -150 708 q 85 922 14 897 q 178 913 101 921 q 306 904 256 904 q 399 913 356 904 l 404 878 q 347 832 347 854 q 426 674 354 794 q 721 208 499 554 l 726 211 l 726 411 z "},"ń":{"ha":865,"x_min":58,"x_max":813,"o":"m 394 -10 q 233 0 322 0 q 72 -11 143 0 l 67 25 q 150 46 111 39 q 163 329 163 154 l 163 394 q 149 681 163 581 q 58 703 111 685 l 63 739 q 228 724 142 724 q 353 733 315 724 l 356 710 q 318 678 318 700 q 351 608 318 661 q 414 504 383 554 q 631 146 506 358 l 635 149 l 635 318 q 615 598 635 504 q 549 707 596 692 l 551 731 q 660 724 588 724 q 808 739 732 724 l 813 703 q 717 681 756 685 q 703 394 703 569 l 703 329 q 717 43 703 118 q 810 21 775 33 l 806 -15 q 675 0 736 0 q 581 -6 614 0 q 538 97 581 25 q 461 225 496 169 q 240 594 349 407 l 235 592 l 235 406 q 276 46 235 129 q 399 25 339 39 l 394 -10 m 615 1010 q 645 1011 629 1011 q 675 1008 661 1011 q 697 969 685 997 q 710 926 708 940 l 447 775 l 432 800 q 533 893 483 835 q 615 1010 582 951 z "},"Œ":{"ha":1126,"x_min":58,"x_max":1117,"o":"m 547 919 q 643 912 581 919 q 828 904 706 904 q 1111 919 950 904 l 1117 892 q 1035 672 1044 818 l 1000 672 q 988 824 988 732 q 849 853 928 853 q 732 846 769 853 q 697 507 708 774 q 804 497 742 497 q 956 557 928 497 l 983 551 q 971 445 971 507 q 979 324 971 383 l 947 318 q 919 442 926 371 q 805 446 867 446 q 696 439 743 446 l 696 379 q 747 142 696 206 q 887 89 792 89 q 1090 197 982 89 l 1110 179 q 856 -21 994 26 q 619 113 683 -21 l 614 113 q 353 -21 513 10 q 137 102 215 3 q 58 342 58 201 q 121 610 58 483 q 297 820 183 736 q 547 919 410 904 m 599 801 q 451 833 525 833 q 335 803 376 833 q 196 390 196 665 q 259 165 196 260 q 435 69 322 69 q 542 99 501 69 q 574 181 567 132 q 582 349 582 231 q 590 622 582 468 q 599 801 599 775 z "},"œ":{"ha":950,"x_min":58,"x_max":940,"o":"m 599 306 q 630 138 599 196 q 750 81 661 81 q 917 158 839 81 l 932 144 q 726 -17 838 22 q 529 92 581 -17 l 525 92 q 313 -17 444 10 q 129 83 200 3 q 58 276 58 164 q 178 585 58 447 q 468 740 299 722 q 546 734 494 740 q 701 728 597 728 q 933 740 806 728 l 940 713 q 878 543 885 654 l 843 543 q 833 654 833 589 q 719 678 785 678 q 628 672 653 678 q 599 414 610 625 q 694 404 647 404 q 803 453 778 404 l 832 449 q 819 367 819 407 q 829 268 819 326 l 796 263 q 774 349 781 304 q 688 354 718 354 q 599 347 657 354 l 599 306 m 508 640 q 393 663 453 663 q 299 642 333 663 q 188 315 188 535 q 237 138 188 211 q 378 65 286 65 q 463 85 435 65 q 488 151 482 111 q 494 284 494 190 q 501 499 494 378 q 508 640 508 619 z "},"Ŕ":{"ha":860,"x_min":-112,"x_max":885,"o":"m 676 1107 l 390 1003 l 379 1031 q 597 1206 493 1081 q 656 1193 628 1203 q 670 1151 663 1181 q 676 1107 678 1121 m 182 49 q 200 431 200 182 q 186 831 200 681 q -8 786 35 828 q -18 725 -18 767 q -4 668 -18 683 l -6 658 q -75 600 -40 638 q -102 614 -92 601 q -112 643 -112 626 q -40 794 -112 707 q 100 915 33 882 q 442 904 218 904 q 657 862 583 904 q 731 700 731 819 q 557 464 731 531 l 751 53 q 885 24 822 43 l 879 -11 q 702 0 797 0 q 564 -6 607 0 l 558 14 q 582 93 582 38 q 451 447 582 204 q 371 454 417 454 l 375 485 l 392 485 q 546 534 492 485 q 600 677 600 583 q 551 803 600 771 q 399 835 503 835 q 318 831 350 835 q 307 432 307 707 q 322 53 307 157 q 456 24 393 43 l 450 -11 q 256 0 376 0 q 33 -11 136 0 l 29 22 q 182 49 108 42 z "},"Ŗ":{"ha":860,"x_min":-112,"x_max":885,"o":"m 182 49 q 200 431 200 182 q 186 831 200 681 q -8 786 35 828 q -18 725 -18 767 q -4 668 -18 683 l -6 658 q -75 600 -40 638 q -102 614 -92 601 q -112 643 -112 626 q -40 794 -112 707 q 100 915 33 882 q 442 904 218 904 q 657 862 583 904 q 731 700 731 819 q 557 464 731 531 l 751 53 q 885 24 822 43 l 879 -11 q 702 0 797 0 q 564 -6 607 0 l 558 14 q 582 93 582 38 q 451 447 582 204 q 371 454 417 454 l 375 485 l 392 485 q 546 534 492 485 q 600 677 600 583 q 551 803 600 771 q 399 835 503 835 q 318 831 350 835 q 307 432 307 707 q 322 53 307 157 q 456 24 393 43 l 450 -11 q 256 0 376 0 q 33 -11 136 0 l 29 22 q 182 49 108 42 m 531 -117 q 383 -299 524 -226 l 369 -281 q 436 -186 428 -237 q 381 -117 400 -153 q 413 -78 389 -100 q 456 -47 436 -57 q 497 -80 474 -58 q 531 -117 521 -101 z "},"ŗ":{"ha":731,"x_min":60,"x_max":725,"o":"m 60 721 l 379 731 q 567 694 504 731 q 629 560 629 657 q 588 442 629 493 q 481 365 547 390 l 636 47 q 725 28 683 39 l 719 -10 q 588 0 661 0 q 474 -7 515 0 l 468 15 q 486 75 486 33 q 389 347 486 160 q 321 353 360 353 l 324 393 l 338 393 q 501 543 501 393 q 361 682 501 682 q 276 667 314 682 q 267 353 267 575 q 279 46 267 131 q 393 25 340 39 l 389 -10 q 227 0 317 0 q 67 -11 138 0 l 61 25 q 149 46 100 38 q 163 370 163 150 q 150 675 163 590 q 60 693 96 693 l 60 721 m 469 -117 q 322 -299 463 -226 l 308 -281 q 375 -186 367 -237 q 319 -117 339 -153 q 351 -78 328 -100 q 394 -47 375 -57 q 436 -80 413 -58 q 469 -117 460 -101 z "},"Ř":{"ha":860,"x_min":-112,"x_max":885,"o":"m 182 49 q 200 431 200 182 q 186 831 200 681 q -8 786 35 828 q -18 725 -18 767 q -4 668 -18 683 l -6 658 q -75 600 -40 638 q -102 614 -92 601 q -112 643 -112 626 q -40 794 -112 707 q 100 915 33 882 q 442 904 218 904 q 657 862 583 904 q 731 700 731 819 q 557 464 731 531 l 751 53 q 885 24 822 43 l 879 -11 q 702 0 797 0 q 564 -6 607 0 l 558 14 q 582 93 582 38 q 451 447 582 204 q 371 454 417 454 l 375 485 l 392 485 q 546 534 492 485 q 600 677 600 583 q 551 803 600 771 q 399 835 503 835 q 318 831 350 835 q 307 432 307 707 q 322 53 307 157 q 456 24 393 43 l 450 -11 q 256 0 376 0 q 33 -11 136 0 l 29 22 q 182 49 108 42 m 303 1125 l 526 1229 l 540 1203 q 317 993 413 1122 l 289 993 q 65 1203 193 1122 l 79 1229 l 303 1125 z "},"ř":{"ha":731,"x_min":60,"x_max":725,"o":"m 60 721 l 379 731 q 567 694 504 731 q 629 560 629 657 q 588 442 629 493 q 481 365 547 390 l 636 47 q 725 28 683 39 l 719 -10 q 588 0 661 0 q 474 -7 515 0 l 468 15 q 486 75 486 33 q 389 347 486 160 q 321 353 360 353 l 324 393 l 338 393 q 501 543 501 393 q 361 682 501 682 q 276 667 314 682 q 267 353 267 575 q 279 46 267 131 q 393 25 340 39 l 389 -10 q 227 0 317 0 q 67 -11 138 0 l 61 25 q 149 46 100 38 q 163 370 163 150 q 150 675 163 590 q 60 693 96 693 l 60 721 m 179 1026 l 365 901 l 551 1026 l 569 1003 q 379 769 453 904 l 351 769 q 161 1003 278 904 l 179 1026 z "},"Š":{"ha":646,"x_min":15,"x_max":617,"o":"m 15 17 q 69 228 15 139 q 181 317 122 317 q 211 307 196 317 l 215 297 q 193 210 197 263 l 185 204 q 164 207 179 207 q 119 190 149 207 q 72 157 89 174 q 63 113 63 138 q 151 1 63 47 q 321 -46 239 -46 q 492 149 492 -46 q 351 333 492 222 q 235 428 293 381 q 94 621 94 539 q 182 802 94 718 q 381 925 269 886 q 607 901 500 925 l 607 874 q 526 668 535 807 l 492 668 q 485 797 492 742 q 355 825 425 825 q 236 795 285 825 q 188 719 188 765 q 228 627 188 674 q 328 537 269 581 q 444 448 386 493 q 542 351 501 403 q 583 250 583 299 q 507 3 583 111 q 299 -160 431 -106 q 21 -62 125 -142 q 15 17 15 -24 m 379 1125 l 603 1229 l 617 1203 q 393 993 489 1122 l 365 993 q 142 1203 269 1122 l 156 1229 l 379 1125 z "},"Ÿ":{"ha":757,"x_min":-231,"x_max":839,"o":"m 325 340 l 325 376 l 89 882 q -29 1028 35 999 q -90 1010 -54 1028 q -135 974 -126 992 l -143 971 q -226 1010 -181 996 q -231 1033 -231 1018 q -208 1060 -231 1047 q -143 1074 -185 1074 q 63 1025 -56 1074 q 228 925 182 976 q 292 710 257 800 q 404 468 328 621 q 558 846 558 769 q 531 890 558 876 l 536 910 q 683 904 606 904 q 832 915 760 904 l 839 881 q 704 851 772 860 l 432 414 q 450 49 432 182 q 603 22 524 42 l 599 -11 q 376 0 496 0 q 182 -11 256 0 l 176 24 q 310 53 239 43 q 325 340 325 167 m 367 1115 q 333 1069 357 1097 q 292 1031 308 1042 q 251 1069 275 1042 q 217 1115 226 1097 q 249 1153 225 1132 q 292 1185 272 1175 q 333 1152 310 1174 q 367 1115 357 1131 m 624 1115 q 590 1069 614 1097 q 549 1031 565 1042 q 508 1069 532 1042 q 474 1115 483 1097 q 506 1153 482 1132 q 549 1185 529 1175 q 590 1152 567 1174 q 624 1115 614 1131 z "},"Ž":{"ha":638,"x_min":-51,"x_max":856,"o":"m 171 849 q 82 757 82 849 q 86 725 82 739 l 83 714 q 0 676 38 701 q -25 715 -25 686 q 80 854 -25 785 q 282 950 185 924 q 462 895 417 900 q 532 890 507 890 q 679 943 635 890 l 710 918 q 583 754 640 854 l 214 117 q 360 28 285 85 q 486 -76 436 -29 q 674 -196 613 -196 q 723 -161 703 -196 q 743 -92 743 -126 l 749 -82 q 839 -68 794 -82 q 856 -99 856 -81 q 783 -183 856 -142 q 628 -247 711 -225 q 493 -268 544 -268 q 280 -58 364 -124 q 117 8 196 8 q -21 -49 39 8 l -51 -24 q 119 199 29 51 l 499 824 q 451 806 476 813 q 171 849 253 849 m 392 1125 l 615 1229 l 629 1203 q 406 993 501 1122 l 378 993 q 154 1203 282 1122 l 168 1229 l 392 1125 z "},"ȷ":{"ha":411,"x_min":17,"x_max":368,"o":"m 163 171 l 163 393 q 151 678 163 603 q 36 699 89 685 l 40 733 q 202 724 113 724 q 363 735 292 724 l 368 699 q 281 678 329 686 q 267 394 267 578 l 267 329 q 279 46 267 146 q 182 -93 246 -28 q 40 -203 118 -158 l 17 -176 q 131 -31 99 -114 q 163 171 163 51 z "},"ˆ":{"ha":408,"x_min":0,"x_max":408,"o":"m 204 894 l 18 769 l 0 793 q 190 1026 117 892 l 218 1026 q 408 793 292 892 l 390 769 l 204 894 z "},"ˇ":{"ha":408,"x_min":0,"x_max":408,"o":"m 18 1026 l 204 901 l 390 1026 l 408 1003 q 218 769 292 904 l 190 769 q 0 1003 117 904 l 18 1026 z "},"˚":{"ha":268,"x_min":0,"x_max":268,"o":"m 135 775 q 39 801 78 775 q 0 880 0 828 q 41 973 0 932 q 142 1026 82 1014 q 268 924 268 1026 q 231 831 268 869 q 135 775 194 793 m 203 896 q 203 915 203 896 q 181 956 203 933 q 127 978 160 978 q 81 965 94 978 q 65 906 65 942 q 88 847 65 869 q 141 824 110 824 q 188 836 172 824 q 203 896 203 858 z "},"˜":{"ha":458,"x_min":0,"x_max":458,"o":"m 178 967 q 333 924 260 924 q 433 957 406 924 l 458 942 q 314 828 381 857 q 213 849 285 828 q 113 871 142 871 q 25 838 53 871 l 0 853 q 178 967 78 938 z "},"̇":{"ha":150,"x_min":0,"x_max":150,"o":"m 150 907 q 116 861 140 889 q 75 822 92 833 q 34 861 58 833 q 0 907 10 889 q 32 945 8 924 q 75 976 56 967 q 117 944 93 965 q 150 907 140 922 z "},"–":{"ha":569,"x_min":-7,"x_max":579,"o":"m 4 411 q 347 399 176 399 q 571 403 517 399 l 579 394 l 568 340 l 4 340 l -7 350 l 4 411 z "},"—":{"ha":854,"x_min":-4,"x_max":860,"o":"m 7 411 q 520 399 243 399 q 851 403 797 399 l 860 394 l 849 340 l 7 340 l -4 350 l 7 411 z "},"‘":{"ha":296,"x_min":74,"x_max":246,"o":"m 74 668 q 121 810 74 738 q 232 925 168 882 l 246 911 q 193 826 217 876 q 168 738 169 775 q 224 668 204 704 q 192 630 215 651 q 149 599 168 608 q 107 631 131 610 q 74 668 83 653 z "},"’":{"ha":296,"x_min":50,"x_max":222,"o":"m 222 856 q 175 714 222 786 q 64 599 128 642 l 50 613 q 103 698 79 647 q 128 786 126 749 q 72 856 92 819 q 104 894 81 872 q 147 925 128 915 q 189 892 165 914 q 222 856 213 871 z "},"‚":{"ha":289,"x_min":50,"x_max":222,"o":"m 222 64 q 177 -71 222 -6 q 64 -175 132 -136 l 50 -160 q 128 -6 121 -92 q 72 64 92 28 q 104 102 81 81 q 147 133 128 124 q 189 101 165 122 q 222 64 213 79 z "},"“":{"ha":508,"x_min":74,"x_max":458,"o":"m 74 668 q 121 810 74 738 q 232 925 168 882 l 246 911 q 193 826 217 876 q 168 738 169 775 q 224 668 204 704 q 192 630 215 651 q 149 599 168 608 q 107 631 131 610 q 74 668 83 653 m 286 668 q 333 810 286 738 q 444 925 381 882 l 458 911 q 406 826 429 876 q 381 738 382 775 q 436 668 417 704 q 404 630 428 651 q 361 599 381 608 q 319 631 343 610 q 286 668 296 653 z "},"”":{"ha":508,"x_min":50,"x_max":435,"o":"m 435 856 q 388 714 435 786 q 276 599 340 642 l 263 613 q 315 698 292 647 q 340 786 339 749 q 285 856 304 819 q 317 894 293 872 q 360 925 340 915 q 401 892 378 914 q 435 856 425 871 m 222 856 q 175 714 222 786 q 64 599 128 642 l 50 613 q 103 698 79 647 q 128 786 126 749 q 72 856 92 819 q 104 894 81 872 q 147 925 128 915 q 189 892 165 914 q 222 856 213 871 z "},"„":{"ha":501,"x_min":50,"x_max":435,"o":"m 222 64 q 177 -71 222 -6 q 64 -175 132 -136 l 50 -160 q 128 -6 121 -92 q 72 64 92 28 q 104 102 81 81 q 147 133 128 124 q 189 101 165 122 q 222 64 213 79 m 435 64 q 390 -71 435 -6 q 276 -175 344 -136 l 263 -160 q 340 -6 333 -92 q 285 64 304 28 q 317 102 293 81 q 360 133 340 124 q 401 101 378 122 q 435 64 425 79 z "},"•":{"ha":485,"x_min":72,"x_max":413,"o":"m 413 400 l 413 381 q 257 196 306 292 l 229 196 q 72 379 179 294 l 72 399 q 125 442 94 415 q 161 474 156 468 q 178 493 167 481 q 197 515 190 506 q 229 565 210 532 l 257 565 q 274 538 265 551 q 289 515 282 524 q 308 493 296 506 q 325 474 319 481 q 346 455 331 468 q 365 438 361 442 q 389 419 369 435 q 413 400 408 404 z "},"‹":{"ha":343,"x_min":29,"x_max":304,"o":"m 154 393 l 304 174 l 276 154 q 29 374 147 303 l 29 401 q 276 610 161 474 l 303 592 l 154 393 z "},"›":{"ha":343,"x_min":39,"x_max":314,"o":"m 39 174 l 189 393 l 43 592 l 67 610 q 314 401 182 474 l 314 374 q 67 154 196 303 l 39 174 z "},"€":{"ha":633,"x_min":40,"x_max":586,"o":"m 217 289 q 260 134 224 189 q 380 79 296 79 q 560 167 464 79 l 574 153 q 357 -22 490 32 q 169 61 231 -22 q 104 283 107 144 l 44 276 l 40 282 q 50 326 49 310 l 104 328 q 114 394 106 350 q 44 388 74 393 l 40 393 q 50 438 49 421 l 124 440 q 228 634 156 551 q 404 747 301 717 q 586 725 503 747 l 586 706 q 526 549 535 639 l 496 549 q 492 638 496 604 q 372 657 433 657 q 268 619 311 657 q 218 443 232 542 l 396 450 q 513 457 485 454 q 525 414 518 429 l 525 407 l 356 404 l 214 400 l 214 376 l 214 354 q 214 332 213 332 l 396 339 q 513 346 483 343 q 525 303 518 318 l 525 296 l 356 293 l 217 289 z "}}}
